<svg width="262" height="18" viewBox="0 0 262 18" xmlns="http://www.w3.org/2000/svg"><mask id="satori_om-id"><rect x="0" y="0" width="261" height="18" fill="#fff"/></mask><mask id="satori_om-id-0"><rect x="0" y="0" width="55" height="18" fill="#fff"/></mask><g  ><path fill="#79716b" d="M0.5 3.9L2.5 3.9L3.9 3.9Q5.0 3.9 5.7 4.2Q6.4 4.5 6.7 5.0Q7.0 5.5 7.0 6.1L7.0 6.1Q7.0 6.8 6.7 7.3Q6.4 7.9 5.7 8.2Q5.0 8.5 4.0 8.5L4.0 8.5L2.5 8.5L2.5 11.4L3.5 11.7L3.5 12L0.5 12L0.5 11.7L1.5 11.4L1.5 4.5L0.5 4.2L0.5 3.9ZM5.9 6.2L5.9 6.2Q5.9 5.7 5.7 5.3Q5.4 4.9 4.9 4.7Q4.4 4.5 3.5 4.5L3.5 4.5L2.5 4.5L2.5 7.9L4.1 7.9Q4.6 7.9 5.0 7.7Q5.4 7.5 5.7 7.1Q5.9 6.8 5.9 6.2ZM11.3 6.6L11.3 6.6Q11.6 6.6 11.7 6.8Q11.9 6.9 11.9 7.2L11.9 7.2Q11.9 7.5 11.7 7.6Q11.6 7.8 11.3 7.8L11.3 7.8Q11.1 7.8 11.0 7.8Q10.8 7.7 10.6 7.7Q10.5 7.6 10.3 7.6L10.3 7.6Q10.1 7.6 10.0 7.7Q9.8 7.7 9.7 7.8L9.7 7.8Q9.6 7.8 9.5 7.8L9.5 7.8L9.5 11.4L10.5 11.7L10.5 12L7.6 12L7.6 11.7L8.6 11.4L8.6 7.9Q8.5 7.8 8.4 7.7Q8.2 7.6 8.1 7.6Q7.9 7.5 7.7 7.4L7.7 7.4L7.7 7.2L9.3 6.6L9.4 6.6L9.5 7.5Q9.7 7.4 9.9 7.2L9.9 7.2Q10.2 7.0 10.5 6.9Q10.7 6.8 10.9 6.7Q11.1 6.6 11.3 6.6ZM13.7 4.9L13.7 4.9Q13.4 4.9 13.2 4.7Q13.0 4.5 13.0 4.2L13.0 4.2Q13.0 3.8 13.2 3.6Q13.4 3.4 13.7 3.4L13.7 3.4Q14.1 3.4 14.3 3.6Q14.5 3.8 14.5 4.2L14.5 4.2Q14.5 4.5 14.3 4.7Q14.1 4.9 13.7 4.9ZM14.1 6.6L14.3 6.6L14.3 7.6L14.3 11.4L15.2 11.7L15.2 12L12.4 12L12.4 11.7L13.3 11.4L13.3 7.8Q13.3 7.7 13.1 7.6Q13.0 7.5 12.8 7.4Q12.6 7.4 12.4 7.3L12.4 7.3L12.4 7.1L14.1 6.6ZM19.3 12L19.3 11.7L20.3 11.4L20.3 8.6Q20.3 8.2 20.1 8.0Q20.0 7.7 19.7 7.6Q19.4 7.5 19.0 7.5L19.0 7.5Q18.6 7.5 18.1 7.6L18.1 7.6Q17.8 7.8 17.6 8.0L17.6 8.0L17.6 11.4L18.5 11.7L18.5 12L15.7 12L15.7 11.7L16.7 11.4L16.7 7.9Q16.6 7.8 16.4 7.7Q16.2 7.5 15.7 7.4L15.7 7.4L15.7 7.2L17.2 6.6L17.4 6.6L17.6 7.6Q17.8 7.4 18.0 7.2L18.0 7.2Q18.3 7.0 18.5 6.9Q18.8 6.7 19.1 6.7Q19.4 6.6 19.7 6.6L19.7 6.6Q20.5 6.6 20.8 7.1Q21.2 7.5 21.2 8.5L21.2 8.5L21.2 11.4L22.1 11.7L22.1 12L19.3 12ZM24.2 7.3L24.2 10.5Q24.2 10.9 24.5 11.1Q24.7 11.3 25.2 11.3L25.2 11.3Q25.4 11.3 25.7 11.3Q25.9 11.2 26.2 11.1L26.2 11.1L26.2 11.5Q25.9 11.7 25.6 11.9Q25.3 12.0 25.1 12.0Q24.9 12.1 24.7 12.1L24.7 12.1Q24.3 12.1 23.9 12.0Q23.6 11.8 23.5 11.5Q23.3 11.2 23.3 10.8L23.3 10.8L23.3 7.5L22.6 7.1L22.6 7.0Q22.7 6.9 22.9 6.8Q23.0 6.7 23.2 6.6Q23.3 6.5 23.4 6.3Q23.6 6.2 23.7 6.1Q23.8 6.0 24.0 5.9L24.0 5.9L24.2 5.9L24.2 6.7L26.1 6.7L26.0 7.3L24.2 7.3ZM29.3 6.6L29.3 6.6Q30.0 6.6 30.4 6.9Q30.9 7.2 31.1 7.7Q31.4 8.2 31.4 9.0L31.4 9.0L27.8 9.0Q27.8 9.1 27.8 9.1L27.8 9.1Q27.8 9.8 28.0 10.3Q28.3 10.8 28.8 11.1Q29.3 11.3 29.9 11.3L29.9 11.3Q30.2 11.3 30.4 11.3Q30.7 11.2 30.9 11.1Q31.1 11.0 31.3 10.8L31.3 10.8L31.5 11.1Q31.1 11.4 30.8 11.7Q30.5 11.9 30.1 12.0Q29.8 12.1 29.4 12.1L29.4 12.1Q28.6 12.1 28.1 11.8Q27.5 11.4 27.2 10.8Q26.8 10.2 26.8 9.4L26.8 9.4Q26.8 8.6 27.1 8.0Q27.4 7.3 28.0 7.0Q28.6 6.6 29.3 6.6ZM27.8 8.5L27.8 8.5L30.4 8.4Q30.4 8.1 30.2 7.8L30.2 7.8Q30.1 7.5 29.9 7.3Q29.6 7.1 29.2 7.1L29.2 7.1Q28.8 7.1 28.5 7.4Q28.1 7.6 28.0 8.0L28.0 8.0Q27.9 8.3 27.8 8.5ZM36.8 12.1L36.7 11.4Q36.4 11.6 36.2 11.7L36.2 11.7Q35.8 11.9 35.6 12.0Q35.4 12.0 35.2 12.1Q35.0 12.1 34.8 12.1L34.8 12.1Q34.0 12.1 33.5 11.8Q32.9 11.5 32.7 10.9Q32.4 10.4 32.4 9.6L32.4 9.6Q32.4 8.9 32.6 8.4Q32.8 7.8 33.2 7.4Q33.7 7.0 34.2 6.8Q34.7 6.6 35.3 6.6L35.3 6.6Q35.6 6.6 35.9 6.6Q36.2 6.7 36.5 6.8L36.5 6.8Q36.6 6.8 36.6 6.8L36.6 6.8L36.6 4.5Q36.5 4.4 36.4 4.4Q36.3 4.3 36.1 4.2Q35.9 4.1 35.8 4.0L35.8 4.0L35.8 3.9L37.5 3.4L37.6 3.4L37.5 4.4L37.5 11.1Q37.6 11.1 37.7 11.2Q37.8 11.2 37.9 11.3Q38.0 11.4 38.1 11.4Q38.3 11.4 38.4 11.5L38.4 11.5L38.4 11.6L36.9 12.1L36.8 12.1ZM36.6 11.0L36.6 8.4Q36.6 7.8 36.3 7.5Q35.9 7.1 35.2 7.1L35.2 7.1Q34.6 7.1 34.2 7.4Q33.8 7.7 33.6 8.2Q33.4 8.7 33.4 9.3Q33.4 10.0 33.7 10.5Q33.9 10.9 34.3 11.2Q34.7 11.4 35.2 11.4L35.2 11.4Q35.7 11.4 36.1 11.3L36.1 11.3Q36.4 11.2 36.6 11.0L36.6 11.0Z M43.0 4.9L43.0 4.9Q42.7 4.9 42.5 4.7Q42.2 4.5 42.2 4.2L42.2 4.2Q42.2 3.8 42.5 3.6Q42.7 3.4 43.0 3.4L43.0 3.4Q43.3 3.4 43.5 3.6Q43.8 3.8 43.8 4.2L43.8 4.2Q43.8 4.5 43.5 4.7Q43.3 4.9 43.0 4.9ZM43.4 6.6L43.6 6.6L43.5 7.6L43.5 11.4L44.5 11.7L44.5 12L41.7 12L41.7 11.7L42.6 11.4L42.6 7.8Q42.5 7.7 42.4 7.6Q42.2 7.5 42.1 7.4Q41.9 7.4 41.7 7.3L41.7 7.3L41.7 7.1L43.4 6.6ZM48.6 12L48.6 11.7L49.6 11.4L49.6 8.6Q49.6 8.2 49.4 8.0Q49.3 7.7 49.0 7.6Q48.7 7.5 48.3 7.5L48.3 7.5Q47.8 7.5 47.4 7.6L47.4 7.6Q47.1 7.8 46.9 8.0L46.9 8.0L46.9 11.4L47.8 11.7L47.8 12L45.0 12L45.0 11.7L46.0 11.4L46.0 7.9Q45.9 7.8 45.6 7.7Q45.4 7.5 45.0 7.4L45.0 7.4L45.0 7.2L46.5 6.6L46.7 6.6L46.9 7.6Q47.1 7.4 47.3 7.2L47.3 7.2Q47.6 7.0 47.8 6.9Q48.1 6.7 48.4 6.7Q48.7 6.6 49.0 6.6L49.0 6.6Q49.7 6.6 50.1 7.1Q50.5 7.5 50.5 8.5L50.5 8.5L50.5 11.4L51.4 11.7L51.4 12L48.6 12Z "/></g><mask id="satori_om-id-1"><rect x="55" y="0" width="32" height="18" fill="#fff"/></mask><g  ><path fill="#bb4d00" d="M59.6 3.8L59.6 3.8Q60.5 3.8 61.3 4.1Q62.0 4.4 62.6 4.9Q63.1 5.5 63.4 6.2Q63.7 7.0 63.7 7.9L63.7 7.9Q63.7 8.8 63.4 9.6Q63.1 10.4 62.6 10.9Q62.0 11.5 61.3 11.8Q60.6 12.1 59.7 12.1L59.7 12.1Q58.8 12.1 58.0 11.8Q57.3 11.5 56.7 11.0Q56.2 10.4 55.9 9.6Q55.6 8.9 55.6 8.0L55.6 8.0Q55.6 7.0 55.9 6.3Q56.2 5.5 56.7 4.9Q57.3 4.4 58.0 4.1Q58.8 3.8 59.6 3.8ZM59.7 11.5L59.7 11.5Q60.6 11.5 61.3 11.1Q61.9 10.7 62.3 9.9Q62.6 9.2 62.6 8.1L62.6 8.1Q62.6 6.9 62.3 6.1Q61.9 5.3 61.2 4.8Q60.5 4.4 59.6 4.4L59.6 4.4Q58.7 4.4 58.0 4.8Q57.4 5.2 57.0 6.0Q56.7 6.7 56.7 7.8L56.7 7.8Q56.7 8.9 57.1 9.8Q57.4 10.6 58.1 11.1Q58.8 11.5 59.7 11.5ZM67.8 6.6L67.8 6.6Q68.3 6.6 68.6 6.7Q68.9 6.8 69.0 7.0Q69.2 7.2 69.2 7.3L69.2 7.3Q69.2 7.5 69.1 7.7Q69.0 7.8 68.9 7.9Q68.8 8.0 68.6 8.0L68.6 8.0Q68.4 8.0 68.3 7.9Q68.2 7.8 68.0 7.7Q67.9 7.6 67.8 7.4Q67.6 7.3 67.5 7.2Q67.3 7.2 67.2 7.2L67.2 7.2Q66.8 7.2 66.5 7.4Q66.1 7.6 65.9 8.0Q65.7 8.4 65.7 9.0L65.7 9.0Q65.7 9.7 66.0 10.3Q66.2 10.8 66.7 11.1Q67.1 11.3 67.7 11.3L67.7 11.3Q68.1 11.3 68.4 11.2Q68.8 11.1 69.1 10.8L69.1 10.8L69.2 11.1Q68.9 11.4 68.6 11.7Q68.3 11.9 67.9 12.0Q67.6 12.1 67.2 12.1L67.2 12.1Q66.5 12.1 65.9 11.8Q65.4 11.4 65.1 10.9Q64.8 10.3 64.8 9.5L64.8 9.5Q64.8 8.9 65.0 8.4Q65.2 7.8 65.6 7.4Q65.9 7.0 66.5 6.8Q67.0 6.6 67.8 6.6ZM73.4 12L73.4 11.7L74.3 11.4L74.3 8.6Q74.3 8.2 74.2 8.0Q74.0 7.7 73.7 7.6Q73.5 7.5 73.1 7.5L73.1 7.5Q72.6 7.5 72.2 7.6L72.2 7.6Q71.8 7.8 71.6 8.0L71.6 8.0L71.6 11.4L72.6 11.7L72.6 12L69.8 12L69.8 11.7L70.7 11.4L70.7 4.6Q70.6 4.6 70.5 4.5Q70.3 4.4 70.1 4.3Q69.9 4.2 69.7 4.1L69.7 4.1L69.7 3.9L71.5 3.4L71.7 3.4L71.6 4.4L71.6 7.6Q71.8 7.4 72.0 7.2L72.0 7.2Q72.3 7.0 72.6 6.9Q72.8 6.7 73.1 6.7Q73.4 6.6 73.7 6.6L73.7 6.6Q74.5 6.6 74.9 7.1Q75.2 7.5 75.2 8.5L75.2 8.5L75.2 11.4L76.2 11.7L76.2 12L73.4 12ZM80.3 6.6L80.3 6.6Q80.6 6.6 80.7 6.8Q80.9 6.9 80.9 7.2L80.9 7.2Q80.9 7.5 80.7 7.6Q80.5 7.8 80.3 7.8L80.3 7.8Q80.1 7.8 80.0 7.8Q79.8 7.7 79.6 7.7Q79.5 7.6 79.3 7.6L79.3 7.6Q79.1 7.6 79.0 7.7Q78.8 7.7 78.6 7.8L78.6 7.8Q78.6 7.8 78.5 7.8L78.5 7.8L78.5 11.4L79.5 11.7L79.5 12L76.6 12L76.6 11.7L77.6 11.4L77.6 7.9Q77.5 7.8 77.4 7.7Q77.2 7.6 77.0 7.6Q76.9 7.5 76.6 7.4L76.6 7.4L76.6 7.2L78.2 6.6L78.4 6.6L78.5 7.5Q78.7 7.4 78.9 7.2L78.9 7.2Q79.2 7.0 79.5 6.9Q79.7 6.8 79.9 6.7Q80.1 6.6 80.3 6.6ZM84.0 6.6L84.0 6.6Q84.6 6.6 85.1 6.9Q85.5 7.2 85.8 7.7Q86.0 8.2 86.1 9.0L86.1 9.0L82.4 9.0Q82.4 9.1 82.4 9.1L82.4 9.1Q82.4 9.8 82.7 10.3Q83.0 10.8 83.4 11.1Q83.9 11.3 84.6 11.3L84.6 11.3Q84.8 11.3 85.1 11.3Q85.3 11.2 85.5 11.1Q85.8 11.0 86.0 10.8L86.0 10.8L86.1 11.1Q85.8 11.4 85.5 11.7Q85.1 11.9 84.8 12.0Q84.4 12.1 84.0 12.1L84.0 12.1Q83.3 12.1 82.7 11.8Q82.1 11.4 81.8 10.8Q81.5 10.2 81.5 9.4L81.5 9.4Q81.5 8.6 81.8 8.0Q82.1 7.3 82.7 7.0Q83.2 6.6 84.0 6.6ZM82.5 8.5L82.5 8.5L85.1 8.4Q85.0 8.1 84.9 7.8L84.9 7.8Q84.8 7.5 84.5 7.3Q84.3 7.1 83.9 7.1L83.9 7.1Q83.5 7.1 83.1 7.4Q82.8 7.6 82.6 8.0L82.6 8.0Q82.5 8.3 82.5 8.5Z "/></g><mask id="satori_om-id-2"><rect x="87" y="0" width="174" height="18" fill="#fff"/></mask><g  ><path fill="#79716b" d=" M92.0 7.3L92.0 11.4L93.0 11.7L93.0 12L90.1 12L90.1 11.7L91.1 11.4L91.1 7.5L90.0 7.3L90.0 7.1L91.1 6.7L91.1 6.5Q91.1 5.7 91.3 5.1Q91.6 4.5 92.0 4.1Q92.5 3.8 93 3.6Q93.5 3.4 94.1 3.4L94.1 3.4Q94.5 3.4 94.7 3.5Q94.9 3.5 95.1 3.6Q95.2 3.7 95.3 3.8Q95.4 3.9 95.4 4.1L95.4 4.1Q95.4 4.3 95.2 4.5Q95.0 4.6 94.8 4.6L94.8 4.6Q94.6 4.6 94.5 4.6Q94.3 4.5 94.2 4.3Q94.1 4.2 93.9 4.1Q93.7 4.0 93.5 4.0L93.5 4.0Q93.1 4.0 92.7 4.2Q92.4 4.4 92.2 4.8Q92.0 5.2 92.0 5.9L92.0 5.9L92.0 6.7L93.7 6.7L93.6 7.3L92.0 7.3ZM97.9 6.6L97.9 6.6Q98.2 6.6 98.3 6.8Q98.5 6.9 98.5 7.2L98.5 7.2Q98.5 7.5 98.3 7.6Q98.1 7.8 97.9 7.8L97.9 7.8Q97.7 7.8 97.6 7.8Q97.4 7.7 97.2 7.7Q97.1 7.6 96.9 7.6L96.9 7.6Q96.7 7.6 96.6 7.7Q96.4 7.7 96.2 7.8L96.2 7.8Q96.2 7.8 96.1 7.8L96.1 7.8L96.1 11.4L97.1 11.7L97.1 12L94.2 12L94.2 11.7L95.2 11.4L95.2 7.9Q95.1 7.8 95.0 7.7Q94.8 7.6 94.6 7.6Q94.5 7.5 94.2 7.4L94.2 7.4L94.2 7.2L95.8 6.6L96.0 6.6L96.1 7.5Q96.3 7.4 96.5 7.2L96.5 7.2Q96.8 7.0 97.1 6.9Q97.3 6.8 97.5 6.7Q97.7 6.6 97.9 6.6ZM101.8 11.6L101.8 11.6Q102.3 11.6 102.6 11.4Q103.0 11.1 103.2 10.7Q103.4 10.2 103.4 9.5L103.4 9.5Q103.4 8.7 103.2 8.2Q103.0 7.7 102.7 7.4Q102.3 7.1 101.8 7.1L101.8 7.1Q101.3 7.1 100.9 7.3Q100.5 7.6 100.3 8.0Q100.1 8.5 100.1 9.2L100.1 9.2Q100.1 10.0 100.3 10.5Q100.5 11.0 100.9 11.3Q101.3 11.6 101.8 11.6ZM101.7 12.1L101.7 12.1Q101.0 12.1 100.4 11.8Q99.8 11.4 99.4 10.8Q99.1 10.2 99.1 9.4L99.1 9.4Q99.1 8.6 99.4 8.0Q99.8 7.3 100.4 7.0Q101.0 6.6 101.8 6.6L101.8 6.6Q102.6 6.6 103.2 6.9Q103.8 7.3 104.1 7.9Q104.5 8.5 104.5 9.3L104.5 9.3Q104.5 10.1 104.1 10.8Q103.8 11.4 103.1 11.8Q102.5 12.1 101.7 12.1ZM110.5 8.1L110.5 8.1L110.5 11.4L111.4 11.7L111.4 12L108.7 12L108.7 11.7L109.6 11.4L109.6 8.5Q109.6 8.1 109.4 7.9Q109.3 7.7 109.0 7.6Q108.8 7.5 108.4 7.5L108.4 7.5Q108.0 7.5 107.6 7.6L107.6 7.6Q107.3 7.7 107.1 7.9L107.1 7.9L107.1 11.4L108.0 11.7L108.0 12L105.3 12L105.3 11.7L106.2 11.4L106.2 7.9Q106.1 7.8 105.9 7.7Q105.7 7.5 105.3 7.4L105.3 7.4L105.3 7.2L106.8 6.6L106.9 6.6L107.1 7.5Q107.3 7.3 107.5 7.2L107.5 7.2Q107.7 7.0 108.0 6.8Q108.3 6.7 108.5 6.7Q108.8 6.6 109.1 6.6L109.1 6.6Q109.6 6.6 109.9 6.8Q110.2 7.0 110.3 7.3L110.3 7.3Q110.4 7.4 110.4 7.6L110.4 7.6Q110.6 7.3 110.8 7.2L110.8 7.2Q111.1 7.0 111.3 6.8Q111.6 6.7 111.9 6.7Q112.1 6.6 112.4 6.6L112.4 6.6Q113.2 6.6 113.5 7.1Q113.8 7.5 113.8 8.4L113.8 8.4L113.8 11.4L114.8 11.7L114.8 12L112.0 12L112.0 11.7L112.9 11.4L112.9 8.5Q112.9 8.1 112.8 7.9Q112.6 7.7 112.4 7.6Q112.1 7.5 111.8 7.5L111.8 7.5Q111.4 7.5 111.0 7.6L111.0 7.6Q110.7 7.7 110.5 7.9L110.5 7.9Q110.5 8.0 110.5 8.1Z M119.3 11.7L119.3 11.7L118.7 12.1L118.4 12.0L118.6 10.7L118.6 4.6Q118.5 4.6 118.4 4.5Q118.2 4.4 118.0 4.3Q117.8 4.2 117.6 4.1L117.6 4.1L117.6 3.9L119.4 3.4L119.6 3.4L119.5 4.4L119.5 7.2Q119.6 7.1 119.8 7.0L119.8 7.0Q120.1 6.9 120.4 6.8Q120.6 6.7 120.9 6.6Q121.1 6.6 121.3 6.6L121.3 6.6Q122.1 6.6 122.6 6.9Q123.2 7.2 123.5 7.8Q123.7 8.3 123.7 9.1L123.7 9.1Q123.7 9.8 123.5 10.3Q123.3 10.9 122.9 11.3Q122.5 11.7 122.0 11.9Q121.5 12.1 120.8 12.1L120.8 12.1Q120.5 12.1 120.2 12.1Q119.9 12.0 119.6 11.8L119.6 11.8Q119.5 11.8 119.3 11.7ZM119.5 7.6L119.5 7.6L119.5 10.3Q119.5 10.7 119.7 11.0Q119.9 11.3 120.2 11.4Q120.5 11.6 121.0 11.6L121.0 11.6Q121.5 11.6 121.9 11.3Q122.3 11.0 122.5 10.5Q122.7 10.0 122.7 9.4L122.7 9.4Q122.7 8.7 122.5 8.2Q122.2 7.8 121.8 7.5Q121.5 7.3 120.9 7.3L120.9 7.3Q120.6 7.3 120.2 7.4Q119.9 7.4 119.6 7.6L119.6 7.6Q119.6 7.6 119.5 7.6ZM128.0 12L128.0 11.7L128.9 11.4L128.9 8.6Q128.9 8.2 128.8 8.0Q128.7 7.7 128.4 7.6Q128.1 7.5 127.7 7.5L127.7 7.5Q127.2 7.5 126.8 7.6L126.8 7.6Q126.5 7.8 126.3 8.0L126.3 8.0L126.3 11.4L127.2 11.7L127.2 12L124.4 12L124.4 11.7L125.3 11.4L125.3 4.6Q125.3 4.6 125.1 4.5Q125.0 4.4 124.8 4.3Q124.6 4.2 124.4 4.1L124.4 4.1L124.4 3.9L126.2 3.4L126.3 3.4L126.3 4.4L126.3 7.6Q126.5 7.4 126.7 7.2L126.7 7.2Q127.0 7.0 127.2 6.9Q127.5 6.7 127.8 6.7Q128.0 6.6 128.4 6.6L128.4 6.6Q129.1 6.6 129.5 7.1Q129.9 7.5 129.9 8.5L129.9 8.5L129.9 11.4L130.8 11.7L130.8 12L128.0 12ZM134.4 8.7L134.4 8.7L134.4 8.2Q134.4 7.7 134.2 7.5Q134.0 7.2 133.4 7.2L133.4 7.2Q133.2 7.2 133.0 7.3L133.0 7.3Q132.9 7.3 132.8 7.3L132.8 7.3Q132.8 7.4 132.7 7.5L132.7 7.5Q132.7 7.6 132.7 7.8Q132.6 7.9 132.5 8.0L132.5 8.0Q132.5 8.1 132.3 8.2Q132.2 8.2 132.0 8.2L132.0 8.2Q131.8 8.2 131.7 8.1Q131.5 8.0 131.5 7.9L131.5 7.9Q131.5 7.7 131.7 7.5Q131.9 7.3 132.2 7.1Q132.5 6.9 132.9 6.8Q133.3 6.6 133.8 6.6L133.8 6.6Q134.3 6.6 134.7 6.8Q135.0 7.0 135.2 7.3Q135.4 7.6 135.4 8.1L135.4 8.1L135.4 10.9Q135.4 11.1 135.4 11.2Q135.5 11.3 135.6 11.4Q135.7 11.4 135.9 11.4L135.9 11.4Q136.0 11.4 136.2 11.4Q136.3 11.3 136.5 11.3L136.5 11.3L136.5 11.6Q136.2 11.8 135.9 12.0Q135.7 12.1 135.4 12.1L135.4 12.1Q135.1 12.1 134.9 12.0Q134.7 11.8 134.6 11.6L134.6 11.6Q134.5 11.3 134.4 11.0L134.4 11.0Q134.4 11.3 134.2 11.5L134.2 11.5Q134.0 11.8 133.6 12.0Q133.3 12.1 132.9 12.1L132.9 12.1Q132.3 12.1 131.9 11.8Q131.5 11.4 131.5 10.8L131.5 10.8Q131.5 10.4 131.6 10.1Q131.8 9.8 132.1 9.6Q132.5 9.3 133.2 9.1L133.2 9.1Q133.7 8.9 134.4 8.7ZM134.4 10.4L134.4 9.2Q134.0 9.3 133.7 9.4L133.7 9.4Q133.2 9.6 132.9 9.8Q132.6 9.9 132.5 10.1Q132.5 10.3 132.5 10.6L132.5 10.6Q132.5 11.0 132.7 11.2Q132.9 11.4 133.3 11.4L133.3 11.4Q133.6 11.4 133.9 11.3Q134.1 11.1 134.3 10.9Q134.4 10.7 134.4 10.4L134.4 10.4ZM140.4 6.6L140.4 6.6Q140.7 6.6 140.9 6.8Q141.0 6.9 141.0 7.2L141.0 7.2Q141.0 7.5 140.9 7.6Q140.7 7.8 140.4 7.8L140.4 7.8Q140.3 7.8 140.1 7.8Q140.0 7.7 139.8 7.7Q139.6 7.6 139.4 7.6L139.4 7.6Q139.3 7.6 139.1 7.7Q139.0 7.7 138.8 7.8L138.8 7.8Q138.7 7.8 138.7 7.8L138.7 7.8L138.7 11.4L139.6 11.7L139.6 12L136.8 12L136.8 11.7L137.7 11.4L137.7 7.9Q137.7 7.8 137.5 7.7Q137.4 7.6 137.2 7.6Q137.0 7.5 136.8 7.4L136.8 7.4L136.8 7.2L138.4 6.6L138.6 6.6L138.6 7.5Q138.9 7.4 139.1 7.2L139.1 7.2Q139.4 7.0 139.6 6.9Q139.9 6.8 140.1 6.7Q140.3 6.6 140.4 6.6ZM143.9 15.1L143.9 15.1Q143.2 15.1 142.8 15.0Q142.3 14.9 142.0 14.7Q141.6 14.6 141.5 14.3Q141.3 14.0 141.3 13.7L141.3 13.7Q141.3 13.4 141.5 13.2Q141.6 13.0 141.8 12.8Q142.1 12.6 142.5 12.5L142.5 12.5Q142.7 12.4 142.9 12.4L142.9 12.4Q142.9 12.4 142.9 12.4L142.9 12.4Q142.5 12.3 142.2 12.1Q142.0 12.0 141.9 11.8Q141.9 11.6 141.9 11.3L141.9 11.3Q141.9 10.9 142.2 10.6L142.2 10.6Q142.5 10.4 143.0 10.3L143.0 10.3Q142.9 10.3 142.8 10.2L142.8 10.2Q142.3 10.0 142.0 9.5Q141.7 9.1 141.7 8.5L141.7 8.5Q141.7 8.0 142.0 7.5Q142.3 7.1 142.8 6.8Q143.3 6.6 143.9 6.6L143.9 6.6Q144.3 6.6 144.7 6.7L144.7 6.7Q144.9 6.7 145.2 6.7L145.2 6.7Q145.5 6.7 145.8 6.7Q146.1 6.7 146.3 6.6Q146.6 6.6 146.8 6.6Q147.0 6.6 147.1 6.7Q147.2 6.8 147.2 7.0Q147.2 7.3 147.0 7.4Q146.9 7.6 146.7 7.6L146.7 7.6Q146.5 7.6 146.4 7.5Q146.2 7.4 146.0 7.3Q145.8 7.2 145.5 7.2L145.5 7.2Q145.5 7.2 145.5 7.2L145.5 7.2Q145.7 7.4 145.9 7.7L145.9 7.7Q146.1 8.1 146.1 8.5L146.1 8.5Q146.1 9.1 145.8 9.5Q145.5 10.0 145.0 10.2Q144.5 10.5 143.9 10.5L143.9 10.5Q143.5 10.5 143.2 10.4L143.2 10.4Q143.1 10.4 142.9 10.5L142.9 10.5Q142.8 10.7 142.8 10.9L142.8 10.9Q142.8 11.1 142.8 11.2Q142.9 11.3 143.0 11.4Q143.2 11.5 143.5 11.6Q143.9 11.6 144.4 11.6L144.4 11.6Q145.0 11.7 145.4 11.8Q145.9 11.9 146.2 12.0Q146.5 12.2 146.7 12.5Q146.8 12.8 146.8 13.2L146.8 13.2Q146.8 13.7 146.5 14.1Q146.1 14.6 145.4 14.8Q144.8 15.1 143.9 15.1ZM143.4 12.5L143.4 12.5Q143.1 12.5 142.9 12.6L142.9 12.6Q142.6 12.8 142.4 13.1Q142.3 13.3 142.3 13.6L142.3 13.6Q142.3 13.9 142.4 14.2Q142.6 14.4 143.0 14.5Q143.4 14.6 144.0 14.6L144.0 14.6Q144.6 14.6 145.0 14.5Q145.4 14.3 145.7 14.0Q145.9 13.8 145.9 13.4L145.9 13.4Q145.9 13.2 145.8 13.0Q145.7 12.9 145.5 12.8Q145.2 12.7 144.8 12.6Q144.4 12.5 143.8 12.5L143.8 12.5Q143.6 12.5 143.4 12.5ZM143.9 10.0L143.9 10.0Q144.5 10.0 144.8 9.6Q145.1 9.3 145.1 8.6L145.1 8.6Q145.1 7.9 144.7 7.5Q144.4 7.1 143.8 7.1L143.8 7.1Q143.3 7.1 143.0 7.4Q142.7 7.8 142.7 8.5L142.7 8.5Q142.7 9.2 143.0 9.6Q143.3 10.0 143.9 10.0ZM150.6 8.7L150.6 8.7L150.6 8.2Q150.6 7.7 150.4 7.5Q150.2 7.2 149.6 7.2L149.6 7.2Q149.4 7.2 149.1 7.3L149.1 7.3Q149.1 7.3 149.0 7.3L149.0 7.3Q149.0 7.4 148.9 7.5L148.9 7.5Q148.9 7.6 148.9 7.8Q148.8 7.9 148.7 8.0L148.7 8.0Q148.6 8.1 148.5 8.2Q148.3 8.2 148.2 8.2L148.2 8.2Q148.0 8.2 147.8 8.1Q147.7 8.0 147.7 7.9L147.7 7.9Q147.7 7.7 147.9 7.5Q148.1 7.3 148.4 7.1Q148.7 6.9 149.1 6.8Q149.5 6.6 150.0 6.6L150.0 6.6Q150.5 6.6 150.9 6.8Q151.2 7.0 151.4 7.3Q151.5 7.6 151.5 8.1L151.5 8.1L151.5 10.9Q151.5 11.1 151.6 11.2Q151.7 11.3 151.8 11.4Q151.9 11.4 152.1 11.4L152.1 11.4Q152.2 11.4 152.4 11.4Q152.5 11.3 152.7 11.3L152.7 11.3L152.7 11.6Q152.4 11.8 152.1 12.0Q151.8 12.1 151.6 12.1L151.6 12.1Q151.3 12.1 151.1 12.0Q150.9 11.8 150.7 11.6L150.7 11.6Q150.6 11.3 150.6 11.0L150.6 11.0Q150.5 11.3 150.4 11.5L150.4 11.5Q150.2 11.8 149.8 12.0Q149.5 12.1 149.1 12.1L149.1 12.1Q148.5 12.1 148.1 11.8Q147.7 11.4 147.7 10.8L147.7 10.8Q147.7 10.4 147.8 10.1Q148.0 9.8 148.3 9.6Q148.7 9.3 149.4 9.1L149.4 9.1Q149.9 8.9 150.6 8.7ZM150.6 10.4L150.6 9.2Q150.2 9.3 149.8 9.4L149.8 9.4Q149.4 9.6 149.1 9.8Q148.8 9.9 148.7 10.1Q148.6 10.3 148.6 10.6L148.6 10.6Q148.6 11.0 148.9 11.2Q149.1 11.4 149.5 11.4L149.5 11.4Q149.8 11.4 150.1 11.3Q150.3 11.1 150.5 10.9Q150.6 10.7 150.6 10.4L150.6 10.4ZM158.8 7.0L158.1 7.2L156.1 12.1L155.7 12.1L153.4 7.3L152.6 7.0L152.6 6.7L155.2 6.7L155.2 7.0L154.4 7.3L156.1 10.9L157.5 7.2L156.7 7.0L156.7 6.7L158.8 6.7L158.8 7.0ZM161.5 6.6L161.5 6.6Q161.8 6.6 162.1 6.7Q162.4 6.7 162.8 6.9L162.8 6.9L162.9 8.3L162.6 8.3L162.1 7.2Q162.0 7.2 162.0 7.2L162.0 7.2Q161.7 7.1 161.5 7.1L161.5 7.1Q161.0 7.1 160.7 7.3Q160.4 7.5 160.4 7.8L160.4 7.8Q160.4 8.1 160.6 8.3Q160.7 8.5 161.0 8.6Q161.3 8.8 161.7 8.9L161.7 8.9Q161.9 9.0 162.2 9.1Q162.4 9.2 162.6 9.4Q162.8 9.6 162.9 9.9Q163.1 10.1 163.1 10.5L163.1 10.5Q163.1 11.0 162.8 11.4Q162.5 11.7 162.1 11.9Q161.6 12.1 161.0 12.1L161.0 12.1Q160.7 12.1 160.3 12.1Q160.0 12.0 159.7 11.9L159.7 11.9L159.5 10.4L159.8 10.4L160.5 11.6Q160.5 11.6 160.6 11.6L160.6 11.6Q160.7 11.7 160.9 11.7L160.9 11.7Q161.5 11.7 161.9 11.4Q162.2 11.2 162.2 10.7L162.2 10.7Q162.2 10.5 162.1 10.3Q162.0 10.1 161.7 10.0Q161.5 9.9 161.3 9.8Q161.0 9.7 160.8 9.6L160.8 9.6Q160.5 9.5 160.2 9.3Q159.9 9.1 159.8 8.8Q159.6 8.5 159.6 8.1L159.6 8.1Q159.6 7.6 159.8 7.3Q160.1 6.9 160.5 6.8Q160.9 6.6 161.5 6.6ZM167.4 12L167.4 11.7L168.3 11.4L168.3 8.6Q168.3 8.2 168.2 8.0Q168.0 7.7 167.8 7.6Q167.5 7.5 167.1 7.5L167.1 7.5Q166.6 7.5 166.2 7.6L166.2 7.6Q165.8 7.8 165.6 8.0L165.6 8.0L165.6 11.4L166.6 11.7L166.6 12L163.8 12L163.8 11.7L164.7 11.4L164.7 4.6Q164.6 4.6 164.5 4.5Q164.3 4.4 164.2 4.3Q164.0 4.2 163.7 4.1L163.7 4.1L163.7 3.9L165.6 3.4L165.7 3.4L165.6 4.4L165.6 7.6Q165.8 7.4 166.0 7.2L166.0 7.2Q166.3 7.0 166.6 6.9Q166.9 6.7 167.1 6.7Q167.4 6.6 167.7 6.6L167.7 6.6Q168.5 6.6 168.9 7.1Q169.2 7.5 169.2 8.5L169.2 8.5L169.2 11.4L170.2 11.7L170.2 12L167.4 12ZM172.3 7.3L172.3 10.2Q172.3 10.6 172.4 10.8Q172.5 11.0 172.8 11.1Q173.0 11.2 173.4 11.2L173.4 11.2Q173.9 11.2 174.2 11.1L174.2 11.1Q174.6 11.0 174.7 10.8L174.7 10.8L174.7 7.4L173.9 7.0L173.9 6.7L175.7 6.6L175.7 7.3L175.7 11.1Q175.7 11.1 175.8 11.2Q175.9 11.2 176.0 11.3Q176.2 11.4 176.3 11.4Q176.4 11.4 176.5 11.5L176.5 11.5L176.5 11.6L175.0 12.1L174.9 12.1L174.8 11.2Q174.6 11.4 174.4 11.5L174.4 11.5Q174.1 11.7 173.9 11.9Q173.7 12.0 173.4 12.1Q173.2 12.1 172.9 12.1L172.9 12.1Q172.1 12.1 171.7 11.7Q171.4 11.2 171.4 10.3L171.4 10.3L171.4 7.4L170.5 7.0L170.5 6.7L172.4 6.6L172.3 7.3ZM178.8 9.3L178.8 11.4L179.7 11.7L179.7 12L177.0 12L177.0 11.7L177.9 11.4L177.9 4.6Q177.8 4.6 177.7 4.5Q177.5 4.4 177.3 4.3Q177.1 4.2 176.9 4.1L176.9 4.1L176.9 3.9L178.7 3.4L178.9 3.4L178.8 4.4L178.8 8.8L179.7 8.8L181.2 7.2L180.5 7.0L180.5 6.7L182.8 6.7L182.8 7.0L182.0 7.2L180.3 8.9L182.5 11.4L183.3 11.7L183.3 12L180.8 12L180.8 11.7L181.4 11.5L179.5 9.3L178.8 9.3ZM185.3 4.4L185.3 11.4L186.2 11.7L186.2 12L183.5 12L183.5 11.7L184.4 11.4L184.4 4.6Q184.3 4.6 184.2 4.5Q184.0 4.4 183.8 4.3Q183.6 4.2 183.4 4.1L183.4 4.1L183.4 3.9L185.2 3.4L185.4 3.4L185.3 4.4ZM189.9 8.7L189.9 8.7L189.9 8.2Q189.9 7.7 189.7 7.5Q189.5 7.2 188.9 7.2L188.9 7.2Q188.7 7.2 188.5 7.3L188.5 7.3Q188.4 7.3 188.3 7.3L188.3 7.3Q188.3 7.4 188.3 7.5L188.3 7.5Q188.2 7.6 188.2 7.8Q188.1 7.9 188.1 8.0L188.1 8.0Q188.0 8.1 187.8 8.2Q187.7 8.2 187.5 8.2L187.5 8.2Q187.3 8.2 187.2 8.1Q187.1 8.0 187.1 7.9L187.1 7.9Q187.1 7.7 187.2 7.5Q187.4 7.3 187.7 7.1Q188.1 6.9 188.5 6.8Q188.9 6.6 189.3 6.6L189.3 6.6Q189.9 6.6 190.2 6.8Q190.6 7.0 190.7 7.3Q190.9 7.6 190.9 8.1L190.9 8.1L190.9 10.9Q190.9 11.1 190.9 11.2Q191.0 11.3 191.1 11.4Q191.2 11.4 191.4 11.4L191.4 11.4Q191.5 11.4 191.7 11.4Q191.8 11.3 192.0 11.3L192.0 11.3L192.0 11.6Q191.7 11.8 191.5 12.0Q191.2 12.1 190.9 12.1L190.9 12.1Q190.6 12.1 190.4 12.0Q190.2 11.8 190.1 11.6L190.1 11.6Q190.0 11.3 190.0 11.0L190.0 11.0Q189.9 11.3 189.7 11.5L189.7 11.5Q189.5 11.8 189.2 12.0Q188.8 12.1 188.5 12.1L188.5 12.1Q187.8 12.1 187.4 11.8Q187.0 11.4 187.0 10.8L187.0 10.8Q187.0 10.4 187.1 10.1Q187.3 9.8 187.7 9.6Q188.0 9.3 188.7 9.1L188.7 9.1Q189.2 8.9 189.9 8.7ZM189.9 10.4L189.9 9.2Q189.5 9.3 189.2 9.4L189.2 9.4Q188.7 9.6 188.4 9.8Q188.2 9.9 188.1 10.1Q188.0 10.3 188.0 10.6L188.0 10.6Q188.0 11.0 188.2 11.2Q188.5 11.4 188.8 11.4L188.8 11.4Q189.2 11.4 189.4 11.3Q189.6 11.1 189.8 10.9Q189.9 10.7 189.9 10.4L189.9 10.4ZM193.4 10.6L193.4 10.6Q193.7 10.6 193.9 10.8Q194.1 11.0 194.1 11.3L194.1 11.3Q194.1 11.7 193.9 11.9Q193.7 12.1 193.4 12.1L193.4 12.1Q193.0 12.1 192.8 11.9Q192.6 11.7 192.6 11.3L192.6 11.3Q192.6 11.0 192.8 10.8Q193.0 10.6 193.4 10.6ZM198.2 6.6L198.2 6.6Q198.7 6.6 199.0 6.7Q199.3 6.8 199.5 7.0Q199.6 7.2 199.6 7.3L199.6 7.3Q199.6 7.5 199.5 7.7Q199.5 7.8 199.3 7.9Q199.2 8.0 199.0 8.0L199.0 8.0Q198.9 8.0 198.7 7.9Q198.6 7.8 198.4 7.7Q198.3 7.6 198.2 7.4Q198.0 7.3 197.9 7.2Q197.8 7.2 197.6 7.2L197.6 7.2Q197.2 7.2 196.9 7.4Q196.6 7.6 196.4 8.0Q196.2 8.4 196.2 9.0L196.2 9.0Q196.2 9.7 196.4 10.3Q196.6 10.8 197.1 11.1Q197.5 11.3 198.1 11.3L198.1 11.3Q198.5 11.3 198.8 11.2Q199.2 11.1 199.5 10.8L199.5 10.8L199.6 11.1Q199.3 11.4 199.0 11.7Q198.7 11.9 198.3 12.0Q198.0 12.1 197.6 12.1L197.6 12.1Q196.9 12.1 196.4 11.8Q195.8 11.4 195.5 10.9Q195.2 10.3 195.2 9.5L195.2 9.5Q195.2 8.9 195.4 8.4Q195.6 7.8 196.0 7.4Q196.4 7.0 196.9 6.8Q197.5 6.6 198.2 6.6ZM203.1 11.6L203.1 11.6Q203.6 11.6 204.0 11.4Q204.4 11.1 204.6 10.7Q204.8 10.2 204.8 9.5L204.8 9.5Q204.8 8.7 204.6 8.2Q204.4 7.7 204.0 7.4Q203.6 7.1 203.1 7.1L203.1 7.1Q202.6 7.1 202.3 7.3Q201.9 7.6 201.7 8.0Q201.5 8.5 201.5 9.2L201.5 9.2Q201.5 10.0 201.7 10.5Q201.9 11.0 202.3 11.3Q202.6 11.6 203.1 11.6ZM203.1 12.1L203.1 12.1Q202.3 12.1 201.7 11.8Q201.1 11.4 200.8 10.8Q200.5 10.2 200.5 9.4L200.5 9.4Q200.5 8.6 200.8 8.0Q201.2 7.3 201.8 7.0Q202.4 6.6 203.2 6.6L203.2 6.6Q204.0 6.6 204.6 6.9Q205.2 7.3 205.5 7.9Q205.8 8.5 205.8 9.3L205.8 9.3Q205.8 10.1 205.5 10.8Q205.1 11.4 204.5 11.8Q203.9 12.1 203.1 12.1ZM211.8 8.1L211.8 8.1L211.8 11.4L212.7 11.7L212.7 12L210.0 12L210.0 11.7L210.9 11.4L210.9 8.5Q210.9 8.1 210.8 7.9Q210.6 7.7 210.4 7.6Q210.1 7.5 209.8 7.5L209.8 7.5Q209.4 7.5 209.0 7.6L209.0 7.6Q208.7 7.7 208.5 7.9L208.5 7.9L208.5 11.4L209.4 11.7L209.4 12L206.6 12L206.6 11.7L207.6 11.4L207.6 7.9Q207.5 7.8 207.3 7.7Q207.0 7.5 206.6 7.4L206.6 7.4L206.6 7.2L208.1 6.6L208.3 6.6L208.5 7.5Q208.7 7.3 208.8 7.2L208.8 7.2Q209.1 7.0 209.4 6.8Q209.6 6.7 209.9 6.7Q210.1 6.6 210.4 6.6L210.4 6.6Q210.9 6.6 211.2 6.8Q211.6 7.0 211.7 7.3L211.7 7.3Q211.7 7.4 211.8 7.6L211.8 7.6Q212.0 7.3 212.2 7.2L212.2 7.2Q212.5 7.0 212.7 6.8Q213.0 6.7 213.2 6.7Q213.5 6.6 213.8 6.6L213.8 6.6Q214.5 6.6 214.9 7.1Q215.2 7.5 215.2 8.4L215.2 8.4L215.2 11.4L216.1 11.7L216.1 12L213.4 12L213.4 11.7L214.3 11.4L214.3 8.5Q214.3 8.1 214.1 7.9Q214.0 7.7 213.7 7.6Q213.5 7.5 213.1 7.5L213.1 7.5Q212.7 7.5 212.3 7.6L212.3 7.6Q212.0 7.7 211.8 7.9L211.8 7.9Q211.8 8.0 211.8 8.1ZM217.4 12L216.6 12L220.0 3.9L220.7 3.9L217.4 12ZM225.1 6.6L225.1 6.6Q225.4 6.6 225.5 6.8Q225.7 6.9 225.7 7.2L225.7 7.2Q225.7 7.5 225.5 7.6Q225.3 7.8 225.1 7.8L225.1 7.8Q224.9 7.8 224.8 7.8Q224.6 7.7 224.4 7.7Q224.3 7.6 224.1 7.6L224.1 7.6Q223.9 7.6 223.8 7.7Q223.6 7.7 223.4 7.8L223.4 7.8Q223.4 7.8 223.3 7.8L223.3 7.8L223.3 11.4L224.3 11.7L224.3 12L221.4 12L221.4 11.7L222.4 11.4L222.4 7.9Q222.3 7.8 222.2 7.7Q222.0 7.6 221.8 7.6Q221.7 7.5 221.4 7.4L221.4 7.4L221.4 7.2L223.0 6.6L223.2 6.6L223.3 7.5Q223.5 7.4 223.7 7.2L223.7 7.2Q224.0 7.0 224.3 6.9Q224.5 6.8 224.7 6.7Q224.9 6.6 225.1 6.6ZM228.8 6.6L228.8 6.6Q229.4 6.6 229.9 6.9Q230.3 7.2 230.6 7.7Q230.8 8.2 230.9 9.0L230.9 9.0L227.2 9.0Q227.2 9.1 227.2 9.1L227.2 9.1Q227.2 9.8 227.5 10.3Q227.8 10.8 228.2 11.1Q228.7 11.3 229.4 11.3L229.4 11.3Q229.6 11.3 229.9 11.3Q230.1 11.2 230.3 11.1Q230.6 11.0 230.8 10.8L230.8 10.8L230.9 11.1Q230.6 11.4 230.3 11.7Q229.9 11.9 229.6 12.0Q229.2 12.1 228.8 12.1L228.8 12.1Q228.1 12.1 227.5 11.8Q226.9 11.4 226.6 10.8Q226.3 10.2 226.3 9.4L226.3 9.4Q226.3 8.6 226.6 8.0Q226.9 7.3 227.5 7.0Q228.0 6.6 228.8 6.6ZM227.3 8.5L227.3 8.5L229.8 8.4Q229.8 8.1 229.7 7.8L229.7 7.8Q229.6 7.5 229.3 7.3Q229.1 7.1 228.7 7.1L228.7 7.1Q228.3 7.1 227.9 7.4Q227.6 7.6 227.4 8.0L227.4 8.0Q227.3 8.3 227.3 8.5ZM233.8 6.6L233.8 6.6Q234.2 6.6 234.5 6.7Q234.8 6.7 235.2 6.9L235.2 6.9L235.3 8.3L234.9 8.3L234.5 7.2Q234.4 7.2 234.3 7.2L234.3 7.2Q234.1 7.1 233.8 7.1L233.8 7.1Q233.3 7.1 233.1 7.3Q232.8 7.5 232.8 7.8L232.8 7.8Q232.8 8.1 233.0 8.3Q233.1 8.5 233.4 8.6Q233.7 8.8 234.0 8.9L234.0 8.9Q234.3 9.0 234.5 9.1Q234.8 9.2 235.0 9.4Q235.2 9.6 235.3 9.9Q235.4 10.1 235.4 10.5L235.4 10.5Q235.4 11.0 235.2 11.4Q234.9 11.7 234.5 11.9Q234.0 12.1 233.4 12.1L233.4 12.1Q233.0 12.1 232.7 12.1Q232.4 12.0 232.1 11.9L232.1 11.9L231.8 10.4L232.2 10.4L232.8 11.6Q232.9 11.6 233.0 11.6L233.0 11.6Q233.1 11.7 233.3 11.7L233.3 11.7Q233.9 11.7 234.3 11.4Q234.6 11.2 234.6 10.7L234.6 10.7Q234.6 10.5 234.5 10.3Q234.3 10.1 234.1 10.0Q233.9 9.9 233.7 9.8Q233.4 9.7 233.2 9.6L233.2 9.6Q232.8 9.5 232.6 9.3Q232.3 9.1 232.1 8.8Q232.0 8.5 232.0 8.1L232.0 8.1Q232.0 7.6 232.2 7.3Q232.5 6.9 232.9 6.8Q233.3 6.6 233.8 6.6ZM238.0 7.3L238.0 10.2Q238.0 10.6 238.1 10.8Q238.2 11.0 238.4 11.1Q238.7 11.2 239.1 11.2L239.1 11.2Q239.5 11.2 239.9 11.1L239.9 11.1Q240.2 11.0 240.4 10.8L240.4 10.8L240.4 7.4L239.5 7.0L239.5 6.7L241.4 6.6L241.3 7.3L241.3 11.1Q241.4 11.1 241.5 11.2Q241.6 11.2 241.7 11.3Q241.8 11.4 241.9 11.4Q242.0 11.4 242.1 11.5L242.1 11.5L242.1 11.6L240.7 12.1L240.5 12.1L240.4 11.2Q240.2 11.4 240.1 11.5L240.1 11.5Q239.8 11.7 239.5 11.9Q239.3 12.0 239.1 12.1Q238.8 12.1 238.5 12.1L238.5 12.1Q237.8 12.1 237.4 11.7Q237.0 11.2 237.0 10.3L237.0 10.3L237.0 7.4L236.1 7.0L236.1 6.7L238.0 6.6L238.0 7.3ZM248.0 8.1L248.0 8.1L248.0 11.4L248.8 11.7L248.8 12L246.1 12L246.1 11.7L247.0 11.4L247.0 8.5Q247.0 8.1 246.9 7.9Q246.8 7.7 246.5 7.6Q246.2 7.5 245.9 7.5L245.9 7.5Q245.5 7.5 245.1 7.6L245.1 7.6Q244.8 7.7 244.6 7.9L244.6 7.9L244.6 11.4L245.5 11.7L245.5 12L242.7 12L242.7 11.7L243.7 11.4L243.7 7.9Q243.6 7.8 243.4 7.7Q243.2 7.5 242.7 7.4L242.7 7.4L242.7 7.2L244.2 6.6L244.4 6.6L244.6 7.5Q244.8 7.3 244.9 7.2L244.9 7.2Q245.2 7.0 245.5 6.8Q245.7 6.7 246.0 6.7Q246.2 6.6 246.5 6.6L246.5 6.6Q247.0 6.6 247.4 6.8Q247.7 7.0 247.8 7.3L247.8 7.3Q247.9 7.4 247.9 7.6L247.9 7.6Q248.1 7.3 248.3 7.2L248.3 7.2Q248.6 7.0 248.8 6.8Q249.1 6.7 249.3 6.7Q249.6 6.6 249.9 6.6L249.9 6.6Q250.6 6.6 251.0 7.1Q251.3 7.5 251.3 8.4L251.3 8.4L251.3 11.4L252.2 11.7L252.2 12L249.5 12L249.5 11.7L250.4 11.4L250.4 8.5Q250.4 8.1 250.2 7.9Q250.1 7.7 249.8 7.6Q249.6 7.5 249.2 7.5L249.2 7.5Q248.8 7.5 248.4 7.6L248.4 7.6Q248.1 7.7 248.0 7.9L248.0 7.9Q248.0 8.0 248.0 8.1ZM255.3 6.6L255.3 6.6Q256.0 6.6 256.4 6.9Q256.9 7.2 257.2 7.7Q257.4 8.2 257.5 9.0L257.5 9.0L253.8 9.0Q253.8 9.1 253.8 9.1L253.8 9.1Q253.8 9.8 254.1 10.3Q254.3 10.8 254.8 11.1Q255.3 11.3 255.9 11.3L255.9 11.3Q256.2 11.3 256.4 11.3Q256.7 11.2 256.9 11.1Q257.1 11.0 257.4 10.8L257.4 10.8L257.5 11.1Q257.2 11.4 256.8 11.7Q256.5 11.9 256.1 12.0Q255.8 12.1 255.4 12.1L255.4 12.1Q254.6 12.1 254.1 11.8Q253.5 11.4 253.2 10.8Q252.9 10.2 252.9 9.4L252.9 9.4Q252.9 8.6 253.2 8.0Q253.5 7.3 254.0 7.0Q254.6 6.6 255.3 6.6ZM253.9 8.5L253.9 8.5L256.4 8.4Q256.4 8.1 256.3 7.8L256.3 7.8Q256.1 7.5 255.9 7.3Q255.6 7.1 255.3 7.1L255.3 7.1Q254.8 7.1 254.5 7.4Q254.2 7.6 254.0 8.0L254.0 8.0Q253.9 8.3 253.9 8.5ZM259.3 10.6L259.3 10.6Q259.6 10.6 259.9 10.8Q260.1 11.0 260.1 11.3L260.1 11.3Q260.1 11.7 259.9 11.9Q259.6 12.1 259.3 12.1L259.3 12.1Q259.0 12.1 258.8 11.9Q258.5 11.7 258.5 11.3L258.5 11.3Q258.5 11.0 258.8 10.8Q259.0 10.6 259.3 10.6Z "/></g></svg>
