<svg width="288" height="18" viewBox="0 0 288 18" xmlns="http://www.w3.org/2000/svg"><mask id="satori_om-id"><rect x="0" y="0" width="288" height="18" fill="#fff"/></mask><mask id="satori_om-id-0"><rect x="0" y="0" width="60" height="18" fill="#fff"/></mask><g  ><path fill="#79716b" d="M4.3 14L0.7 14L0.7 13.4L1.4 13.3Q1.7 13.3 1.7 13.2Q1.8 13.1 1.8 12.7L1.8 12.7L1.8 6.8Q1.8 6.5 1.7 6.4Q1.7 6.3 1.4 6.3L1.4 6.3L0.7 6.2L0.7 5.6L3.7 5.6Q4.3 5.6 4.9 5.7Q5.4 5.8 5.8 6.0Q6.2 6.2 6.4 6.4Q6.7 6.7 6.8 7.1Q6.9 7.5 6.9 8.0L6.9 8.0Q6.9 8.4 6.8 8.9Q6.6 9.3 6.4 9.6Q6.1 9.9 5.8 10.2Q5.4 10.4 4.9 10.5Q4.5 10.7 3.9 10.7L3.9 10.7Q3.6 10.7 3.4 10.6Q3.1 10.6 3 10.6L3 10.6L3 12.7Q3 13.1 3.1 13.2Q3.2 13.3 3.4 13.3L3.4 13.3L4.3 13.4L4.3 14ZM3.7 10.0L3.7 10.0Q4.7 10.0 5.1 9.5Q5.6 9.0 5.6 8L5.6 8Q5.6 7.4 5.4 7.0Q5.2 6.6 4.8 6.4Q4.3 6.2 3.6 6.2L3.6 6.2L3 6.2L3 10.0Q3.1 10.0 3.3 10.0Q3.5 10.0 3.7 10.0ZM11.2 14L7.9 14L7.9 13.4L8.5 13.3Q8.7 13.3 8.7 13.2Q8.8 13.1 8.8 12.8L8.8 12.8L8.8 9.4Q8.8 8.9 8.7 8.8Q8.6 8.7 8.4 8.6L8.4 8.6L7.8 8.5L7.8 8.0L9.5 7.8L9.6 7.9L9.8 9.0L9.8 9.0Q10.1 8.4 10.6 8.1Q11.1 7.7 11.6 7.7L11.6 7.7Q12.1 7.7 12.5 8.1Q12.8 8.4 12.8 8.9L12.8 8.9Q12.8 9.2 12.7 9.4Q12.6 9.6 12.5 9.7Q12.3 9.8 12.0 9.8L12.0 9.8Q11.7 9.8 11.5 9.7Q11.3 9.6 11.3 9.3L11.3 9.3Q11.3 9.2 11.3 9.1Q11.4 9.0 11.4 8.9Q11.5 8.8 11.5 8.6L11.5 8.6Q11.3 8.5 11.0 8.6Q10.7 8.7 10.4 8.9Q10.2 9.2 10.0 9.5Q9.9 9.9 9.9 10.3L9.9 10.3L9.9 12.8Q9.9 13.1 9.9 13.2Q10.0 13.3 10.2 13.3L10.2 13.3L11.2 13.4L11.2 14ZM16.6 14L13.4 14L13.4 13.4L14.1 13.3Q14.3 13.3 14.4 13.2Q14.4 13.0 14.4 12.7L14.4 12.7L14.4 9.4Q14.4 9.0 14.4 8.8Q14.3 8.7 14.0 8.6L14.0 8.6L13.4 8.6L13.5 8.0L15.4 7.9L15.6 7.9L15.6 12.8Q15.6 13.0 15.6 13.1Q15.7 13.3 15.9 13.3L15.9 13.3L16.6 13.4L16.6 14ZM14.8 6.6L14.8 6.6Q14.5 6.6 14.2 6.3Q14.0 6.1 14.0 5.8L14.0 5.8Q14.0 5.4 14.2 5.2Q14.5 5.0 14.8 5.0L14.8 5.0Q15.2 5.0 15.4 5.2Q15.6 5.4 15.6 5.8L15.6 5.8Q15.6 6.1 15.4 6.3Q15.2 6.6 14.8 6.6ZM20.5 14L17.6 14L17.6 13.4L18.1 13.3Q18.3 13.3 18.4 13.2Q18.4 13.1 18.4 12.8L18.4 12.8L18.4 9.4Q18.4 8.9 18.4 8.8Q18.3 8.6 18.0 8.6L18.0 8.6L17.4 8.5L17.5 8.0L19.2 7.8L19.3 7.9L19.4 9.0L19.5 9.0Q19.8 8.4 20.4 8.1Q20.9 7.7 21.6 7.7L21.6 7.7Q22.2 7.7 22.6 8.0Q23.1 8.2 23.3 8.7Q23.5 9.1 23.5 9.8L23.5 9.8L23.5 12.9Q23.5 13.1 23.6 13.2Q23.7 13.3 23.9 13.4L23.9 13.4L24.5 13.4L24.5 14L21.5 14L21.5 13.5L22.0 13.4Q22.3 13.3 22.3 13.2Q22.4 13.1 22.4 12.9L22.4 12.9L22.4 10.1Q22.4 9.6 22.3 9.2Q22.2 8.9 21.9 8.8Q21.6 8.6 21.2 8.6L21.2 8.6Q20.7 8.6 20.3 8.8Q20.0 9.0 19.8 9.4Q19.6 9.8 19.6 10.3L19.6 10.3L19.6 12.8Q19.6 13.1 19.6 13.2Q19.7 13.3 19.9 13.3L19.9 13.3L20.5 13.5L20.5 14ZM27.8 14.2L27.8 14.2Q27.3 14.2 26.9 14.0Q26.6 13.8 26.4 13.4Q26.2 13.0 26.2 12.4L26.2 12.4L26.2 8.7L25.3 8.7L25.3 8.0Q25.7 8.0 26.0 7.8Q26.2 7.6 26.4 7.1Q26.6 6.6 26.6 5.9L26.6 5.9L27.2 5.8L27.3 5.9L27.3 7.9L29.2 7.9L29.2 8.7L27.3 8.7L27.3 12.3Q27.3 12.8 27.5 13.0Q27.8 13.3 28.2 13.3L28.2 13.3Q28.5 13.3 28.8 13.2Q29.1 13.1 29.3 12.9L29.3 12.9L29.6 13.3Q29.2 13.7 28.8 14.0Q28.3 14.2 27.8 14.2ZM33.1 14.2L33.1 14.2Q32.2 14.2 31.6 13.8Q30.9 13.4 30.6 12.7Q30.2 12.0 30.2 11.0L30.2 11.0Q30.2 10.0 30.6 9.3Q30.9 8.6 31.6 8.2Q32.3 7.7 33.1 7.7L33.1 7.7Q33.8 7.7 34.3 8.0Q34.8 8.3 35.1 8.8Q35.4 9.2 35.4 9.9L35.4 9.9Q35.4 10.1 35.3 10.4Q35.3 10.7 35.2 11.0L35.2 11.0L31.4 11.0Q31.5 11.7 31.7 12.2Q31.9 12.8 32.4 13.0Q32.8 13.3 33.4 13.3L33.4 13.3Q33.8 13.3 34.2 13.1Q34.7 12.9 35.0 12.6L35.0 12.6L35.4 13.0Q35.0 13.5 34.4 13.8Q33.8 14.2 33.1 14.2ZM31.4 10.4L31.4 10.4L34.2 10.4Q34.2 10.3 34.2 10.1Q34.2 10.0 34.2 9.8L34.2 9.8Q34.2 9.1 33.9 8.7Q33.6 8.4 33.0 8.4L33.0 8.4Q32.6 8.4 32.2 8.6Q31.9 8.8 31.7 9.3Q31.5 9.7 31.4 10.4ZM38.9 14.2L38.9 14.2Q38.1 14.2 37.6 13.8Q37.0 13.4 36.7 12.8Q36.4 12.1 36.4 11.1L36.4 11.1Q36.4 10.1 36.8 9.3Q37.2 8.6 37.8 8.2Q38.5 7.7 39.4 7.7L39.4 7.7Q39.8 7.7 40.2 7.9Q40.6 8.0 40.8 8.1L40.8 8.1L40.8 6.3Q40.8 5.8 40.8 5.7Q40.7 5.6 40.3 5.5L40.3 5.5L39.8 5.5L39.9 4.9L41.8 4.8L42.0 4.9L42.0 12.8Q42.0 13.1 42.0 13.2Q42.1 13.3 42.4 13.4L42.4 13.4L42.9 13.5L42.9 14.0L41.1 14.1L40.9 13.2L40.9 13.2Q40.6 13.5 40.3 13.7Q40.0 13.9 39.7 14.1Q39.3 14.2 38.9 14.2ZM39.3 13.3L39.3 13.3Q39.7 13.3 40.1 13.1Q40.4 12.8 40.6 12.4Q40.8 12.0 40.8 11.5L40.8 11.5L40.8 9.0Q40.5 8.8 40.2 8.7Q39.8 8.5 39.3 8.5L39.3 8.5Q38.8 8.5 38.4 8.8Q38.0 9.1 37.8 9.6Q37.6 10.2 37.6 11.0L37.6 11.0Q37.6 11.8 37.8 12.3Q38.0 12.8 38.4 13.1Q38.7 13.3 39.3 13.3Z M49.3 14L46.1 14L46.1 13.4L46.8 13.3Q47.0 13.3 47.1 13.2Q47.2 13.0 47.2 12.7L47.2 12.7L47.2 9.4Q47.2 9.0 47.1 8.8Q47.0 8.7 46.7 8.6L46.7 8.6L46.2 8.6L46.2 8.0L48.1 7.9L48.3 7.9L48.3 12.8Q48.3 13.0 48.3 13.1Q48.4 13.3 48.7 13.3L48.7 13.3L49.3 13.4L49.3 14ZM47.6 6.6L47.6 6.6Q47.2 6.6 47.0 6.3Q46.8 6.1 46.8 5.8L46.8 5.8Q46.8 5.4 47.0 5.2Q47.2 5.0 47.6 5.0L47.6 5.0Q47.9 5.0 48.1 5.2Q48.4 5.4 48.4 5.8L48.4 5.8Q48.4 6.1 48.1 6.3Q47.9 6.6 47.6 6.6ZM53.2 14L50.3 14L50.3 13.4L50.9 13.3Q51.1 13.3 51.1 13.2Q51.2 13.1 51.2 12.8L51.2 12.8L51.2 9.4Q51.2 8.9 51.1 8.8Q51.0 8.6 50.8 8.6L50.8 8.6L50.2 8.5L50.3 8.0L51.9 7.8L52.1 7.9L52.2 9.0L52.2 9.0Q52.5 8.4 53.1 8.1Q53.7 7.7 54.3 7.7L54.3 7.7Q54.9 7.7 55.4 8.0Q55.8 8.2 56.0 8.7Q56.3 9.1 56.3 9.8L56.3 9.8L56.3 12.9Q56.3 13.1 56.3 13.2Q56.4 13.3 56.6 13.4L56.6 13.4L57.2 13.4L57.2 14L54.3 14L54.3 13.5L54.8 13.4Q55.0 13.3 55.1 13.2Q55.1 13.1 55.1 12.9L55.1 12.9L55.1 10.1Q55.1 9.6 55.0 9.2Q54.9 8.9 54.6 8.8Q54.4 8.6 53.9 8.6L53.9 8.6Q53.4 8.6 53.1 8.8Q52.7 9.0 52.5 9.4Q52.3 9.8 52.3 10.3L52.3 10.3L52.3 12.8Q52.3 13.1 52.4 13.2Q52.4 13.3 52.6 13.3L52.6 13.3L53.2 13.5L53.2 14Z "/></g><mask id="satori_om-id-1"><rect x="60" y="0" width="27" height="18" fill="#fff"/></mask><g  ><path fill="#007a55" d="M63.8 14.2L63.8 14.2Q63.2 14.2 62.6 14.0Q62.0 13.7 61.6 13.4L61.6 13.4L61.4 14.1L60.9 14.1L60.7 11.5L61.3 11.4Q61.5 11.9 61.8 12.3Q62.0 12.7 62.3 12.9Q62.6 13.2 63.0 13.3Q63.3 13.4 63.7 13.4L63.7 13.4Q64.3 13.4 64.6 13.3Q65.0 13.1 65.1 12.8Q65.3 12.5 65.3 12.0L65.3 12.0Q65.3 11.6 65.1 11.3Q65.0 10.9 64.5 10.7Q64.1 10.4 63.4 10.2L63.4 10.2Q62.7 10.0 62.3 9.8Q61.8 9.5 61.5 9.2Q61.2 8.9 61.1 8.6Q61.0 8.2 61.0 7.7L61.0 7.7Q61.0 7.3 61.1 7.0Q61.2 6.6 61.4 6.3Q61.7 6.0 62.0 5.8Q62.3 5.6 62.7 5.5Q63.1 5.4 63.5 5.4L63.5 5.4Q64.0 5.4 64.5 5.6Q65.0 5.8 65.3 6.0L65.3 6.0L65.5 5.4L66.0 5.4L66.3 7.9L65.6 8.0Q65.5 7.3 65.2 6.9Q64.9 6.5 64.5 6.3Q64.1 6.1 63.6 6.1L63.6 6.1Q62.9 6.1 62.5 6.4Q62.1 6.8 62.1 7.4L62.1 7.4Q62.1 7.8 62.3 8.1Q62.5 8.4 62.9 8.6Q63.3 8.8 64.0 9.1L64.0 9.1Q64.7 9.3 65.2 9.6Q65.6 9.8 65.9 10.1Q66.2 10.4 66.3 10.8Q66.5 11.1 66.5 11.6L66.5 11.6Q66.5 12.2 66.3 12.6Q66.1 13.1 65.7 13.4Q65.4 13.8 64.9 14.0Q64.4 14.2 63.8 14.2ZM69.5 14.2L69.5 14.2Q68.7 14.2 68.3 13.7Q67.8 13.3 67.8 12.5L67.8 12.5Q67.8 11.9 68.1 11.5Q68.5 11.1 69.2 10.9Q70.0 10.7 71.2 10.6L71.2 10.6L71.2 9.8Q71.2 9.3 71.1 9.0Q71.0 8.6 70.7 8.5Q70.4 8.3 69.9 8.3L69.9 8.3Q69.6 8.3 69.3 8.4Q69.0 8.6 68.8 8.7L68.8 8.7Q69.0 8.9 69.0 9.0Q69.1 9.2 69.1 9.2Q69.2 9.3 69.2 9.4L69.2 9.4Q69.2 9.6 69.0 9.8Q68.8 9.9 68.5 9.9L68.5 9.9Q68.2 9.9 68.0 9.8Q67.8 9.6 67.8 9.3L67.8 9.3Q67.8 8.9 68.1 8.5Q68.5 8.2 69.0 8.0Q69.5 7.7 70.1 7.7L70.1 7.7Q70.9 7.7 71.4 8.0Q71.9 8.2 72.1 8.7Q72.4 9.2 72.4 9.9L72.4 9.9L72.4 12.8Q72.4 13.1 72.5 13.2Q72.6 13.3 72.9 13.3L72.9 13.3Q73.0 13.3 73.2 13.3Q73.3 13.3 73.5 13.2L73.5 13.2L73.6 13.7Q73.4 13.9 73.1 14.0Q72.7 14.2 72.5 14.2L72.5 14.2Q72.0 14.2 71.7 13.9Q71.4 13.6 71.3 13.1L71.3 13.1Q71.1 13.5 70.8 13.7Q70.6 13.9 70.2 14.0Q69.9 14.2 69.5 14.2ZM69.9 13.4L69.9 13.4Q70.3 13.4 70.6 13.2Q70.9 13.0 71.1 12.7Q71.2 12.4 71.2 12.1L71.2 12.1L71.2 11.2Q70.5 11.2 70.0 11.3Q69.5 11.5 69.2 11.7Q69.0 12.0 69.0 12.4L69.0 12.4Q69.0 12.8 69.2 13.1Q69.5 13.4 69.9 13.4ZM76.7 16.8L76.7 16.8Q76.0 16.8 75.5 16.7Q75.0 16.6 74.6 16.4Q74.3 16.2 74.1 15.9Q73.9 15.6 73.9 15.3L73.9 15.3Q73.9 15.0 74.1 14.7Q74.2 14.5 74.4 14.3Q74.7 14.1 75.0 13.9L75.0 13.9L75.0 13.9Q74.7 13.8 74.5 13.5Q74.3 13.2 74.3 12.9L74.3 12.9Q74.3 12.6 74.5 12.3Q74.7 12.0 75.1 11.6L75.1 11.6L75.1 11.5Q74.7 11.3 74.5 10.9Q74.2 10.5 74.2 9.9L74.2 9.9Q74.2 9.2 74.5 8.8Q74.8 8.3 75.4 8.0Q76.0 7.7 76.7 7.7L76.7 7.7Q77.0 7.7 77.3 7.8Q77.6 7.8 77.8 7.9Q78.1 8.0 78.3 8.1L78.3 8.1Q78.5 7.6 78.8 7.3Q79.1 7.0 79.5 7.0L79.5 7.0Q79.8 7.0 79.9 7.1Q80.1 7.2 80.2 7.3Q80.3 7.5 80.3 7.7L80.3 7.7Q80.3 7.9 80.1 8.1Q79.9 8.3 79.6 8.3L79.6 8.3Q79.5 8.3 79.4 8.2Q79.2 8.2 79.2 8L79.2 8L79.0 7.7Q78.9 7.9 78.9 8.1Q78.8 8.3 78.7 8.5L78.7 8.5Q78.9 8.8 79.0 9.1Q79.2 9.4 79.2 9.8L79.2 9.8Q79.2 10.5 78.9 10.9Q78.6 11.4 78.0 11.7Q77.5 11.9 76.7 11.9L76.7 11.9Q76.5 11.9 76.2 11.9Q75.9 11.8 75.7 11.8L75.7 11.8Q75.5 12.0 75.4 12.2Q75.4 12.3 75.4 12.5L75.4 12.5Q75.4 12.7 75.4 12.8Q75.5 12.9 75.7 13.0Q75.9 13.0 76.2 13.0L76.2 13.0L77.7 13.0Q78.9 13.0 79.4 13.4Q79.9 13.7 79.9 14.6L79.9 14.6Q79.9 15.0 79.7 15.3Q79.6 15.7 79.3 15.9Q79.1 16.2 78.7 16.4Q78.3 16.6 77.8 16.7Q77.3 16.8 76.7 16.8ZM76.8 16.0L76.8 16.0Q77.4 16.0 77.8 15.9Q78.3 15.7 78.5 15.5Q78.7 15.2 78.7 14.8L78.7 14.8Q78.7 14.5 78.5 14.3Q78.2 14.1 77.6 14.1L77.6 14.1L75.6 14.1Q75.3 14.3 75.2 14.5Q75.0 14.8 75.0 15.1L75.0 15.1Q75.0 15.6 75.5 15.8Q75.9 16.0 76.8 16.0ZM76.7 11.3L76.7 11.3Q77.3 11.3 77.7 10.9Q78.0 10.5 78.0 9.9L78.0 9.9Q78.0 9.1 77.7 8.7Q77.3 8.3 76.6 8.3L76.6 8.3Q76.0 8.3 75.7 8.7Q75.4 9.1 75.4 9.8L75.4 9.8Q75.4 10.5 75.7 10.9Q76.1 11.3 76.7 11.3ZM83.8 14.2L83.8 14.2Q82.9 14.2 82.2 13.8Q81.6 13.4 81.2 12.7Q80.9 12.0 80.9 11.0L80.9 11.0Q80.9 10.0 81.3 9.3Q81.6 8.6 82.3 8.2Q82.9 7.7 83.8 7.7L83.8 7.7Q84.5 7.7 85.0 8.0Q85.5 8.3 85.8 8.8Q86.0 9.2 86.0 9.9L86.0 9.9Q86.0 10.1 86.0 10.4Q85.9 10.7 85.9 11.0L85.9 11.0L82.1 11.0Q82.1 11.7 82.4 12.2Q82.6 12.8 83.0 13.0Q83.5 13.3 84.0 13.3L84.0 13.3Q84.5 13.3 84.9 13.1Q85.4 12.9 85.7 12.6L85.7 12.6L86.1 13.0Q85.7 13.5 85.1 13.8Q84.4 14.2 83.8 14.2ZM82.1 10.4L82.1 10.4L84.9 10.4Q84.9 10.3 84.9 10.1Q84.9 10.0 84.9 9.8L84.9 9.8Q84.9 9.1 84.6 8.7Q84.3 8.4 83.7 8.4L83.7 8.4Q83.2 8.4 82.9 8.6Q82.6 8.8 82.4 9.3Q82.2 9.7 82.1 10.4Z "/></g><mask id="satori_om-id-2"><rect x="87" y="0" width="201" height="18" fill="#fff"/></mask><g  ><path fill="#79716b" d=" M93.5 14L89.9 14L89.9 13.4L90.6 13.3Q90.8 13.3 90.9 13.2Q90.9 13.1 90.9 12.7L90.9 12.7L90.9 8.7L90.0 8.7L90.0 8.1L90.9 8.0L90.9 7.5Q90.9 6.8 91.1 6.3Q91.2 5.7 91.5 5.4Q91.8 5 92.2 4.8Q92.6 4.6 93.1 4.6L93.1 4.6Q93.7 4.6 94.0 4.8Q94.4 4.9 94.6 5.2Q94.8 5.4 94.8 5.8L94.8 5.8Q94.8 6.1 94.6 6.3Q94.4 6.5 94.1 6.5L94.1 6.5Q93.8 6.5 93.6 6.4Q93.5 6.3 93.5 6.1L93.5 6.1Q93.5 5.9 93.5 5.8Q93.6 5.7 93.8 5.4L93.8 5.4Q93.6 5.3 93.5 5.3Q93.3 5.2 93.1 5.2L93.1 5.2Q92.7 5.2 92.5 5.4Q92.3 5.6 92.2 5.9Q92.1 6.2 92.1 6.8L92.1 6.8L92.1 7.9L93.8 7.9L93.8 8.7L92.1 8.7L92.1 12.8Q92.1 13.0 92.1 13.2Q92.2 13.3 92.4 13.3L92.4 13.3L93.5 13.4L93.5 14ZM98.0 14L94.7 14L94.7 13.4L95.3 13.3Q95.5 13.3 95.5 13.2Q95.6 13.1 95.6 12.8L95.6 12.8L95.6 9.4Q95.6 8.9 95.5 8.8Q95.4 8.7 95.2 8.6L95.2 8.6L94.6 8.5L94.7 8.0L96.3 7.8L96.4 7.9L96.6 9.0L96.6 9.0Q96.9 8.4 97.4 8.1Q97.9 7.7 98.4 7.7L98.4 7.7Q99.0 7.7 99.3 8.1Q99.6 8.4 99.6 8.9L99.6 8.9Q99.6 9.2 99.5 9.4Q99.4 9.6 99.3 9.7Q99.1 9.8 98.8 9.8L98.8 9.8Q98.5 9.8 98.3 9.7Q98.1 9.6 98.1 9.3L98.1 9.3Q98.1 9.2 98.1 9.1Q98.2 9.0 98.2 8.9Q98.3 8.8 98.3 8.6L98.3 8.6Q98.1 8.5 97.8 8.6Q97.5 8.7 97.3 8.9Q97.0 9.2 96.9 9.5Q96.7 9.9 96.7 10.3L96.7 10.3L96.7 12.8Q96.7 13.1 96.8 13.2Q96.8 13.3 97.0 13.3L97.0 13.3L98.0 13.4L98.0 14ZM103.2 14.2L103.2 14.2Q102.3 14.2 101.6 13.8Q101.0 13.4 100.6 12.7Q100.3 12.0 100.3 11.1L100.3 11.1Q100.3 10.1 100.6 9.3Q101.0 8.6 101.7 8.2Q102.4 7.7 103.3 7.7L103.3 7.7Q104.2 7.7 104.9 8.1Q105.5 8.5 105.8 9.2Q106.2 9.9 106.2 10.8L106.2 10.8Q106.2 11.8 105.8 12.6Q105.4 13.3 104.8 13.8Q104.1 14.2 103.2 14.2ZM103.3 13.4L103.3 13.4Q103.9 13.4 104.2 13.2Q104.6 12.9 104.8 12.4Q105.0 11.8 105.0 11.1L105.0 11.1Q105.0 10.5 104.8 10.0Q104.7 9.5 104.5 9.1Q104.2 8.8 103.9 8.6Q103.6 8.4 103.2 8.4L103.2 8.4Q102.6 8.4 102.2 8.7Q101.9 9.0 101.7 9.5Q101.5 10.0 101.5 10.7L101.5 10.7Q101.5 11.6 101.7 12.2Q101.9 12.8 102.3 13.1Q102.8 13.4 103.3 13.4ZM110.2 14L107.4 14L107.4 13.4L108.0 13.3Q108.2 13.3 108.2 13.2Q108.3 13.1 108.3 12.8L108.3 12.8L108.3 9.4Q108.3 8.9 108.2 8.8Q108.1 8.6 107.9 8.6L107.9 8.6L107.3 8.5L107.4 8.0L109.0 7.8L109.2 7.9L109.3 9.0L109.3 9.0Q109.5 8.6 109.8 8.3Q110.2 8.1 110.6 7.9Q110.9 7.7 111.3 7.7L111.3 7.7Q112.0 7.7 112.5 8.1Q112.9 8.4 113.1 9.0L113.1 9.0Q113.4 8.4 114.0 8.1Q114.5 7.7 115.2 7.7L115.2 7.7Q115.8 7.7 116.2 8.0Q116.6 8.2 116.8 8.7Q117.1 9.1 117.1 9.8L117.1 9.8L117.1 12.9Q117.1 13.1 117.1 13.2Q117.2 13.3 117.4 13.4L117.4 13.4L118.0 13.4L118.0 14L115.2 14L115.2 13.5L115.6 13.4Q115.8 13.3 115.9 13.2Q115.9 13.1 115.9 12.9L115.9 12.9L115.9 10.1Q115.9 9.6 115.8 9.2Q115.7 8.9 115.5 8.8Q115.2 8.6 114.8 8.6L114.8 8.6Q114.3 8.6 114.0 8.8Q113.6 9.0 113.4 9.4Q113.2 9.8 113.2 10.3L113.2 10.3L113.2 12.8Q113.2 13.1 113.3 13.2Q113.3 13.3 113.5 13.3L113.5 13.3L114.1 13.5L114.1 14L111.3 14L111.3 13.5L111.7 13.4Q112.0 13.3 112.0 13.2Q112.1 13.1 112.1 12.9L112.1 12.9L112.1 10.1Q112.1 9.6 112.0 9.2Q111.9 8.9 111.6 8.7Q111.4 8.6 111.0 8.6L111.0 8.6Q110.5 8.6 110.2 8.8Q109.8 9.0 109.6 9.4Q109.4 9.8 109.4 10.3L109.4 10.3L109.4 12.8Q109.4 13.1 109.5 13.2Q109.5 13.3 109.7 13.3L109.7 13.3L110.2 13.5L110.2 14Z M122.9 13.6L122.3 14.2L122.0 14.1L122.0 6.3Q122.0 5.8 121.9 5.7Q121.8 5.6 121.5 5.5L121.5 5.5L121.0 5.5L121.0 4.9L123.0 4.8L123.1 4.9L123.1 8.9Q123.4 8.5 123.7 8.2Q124.0 8.0 124.4 7.9Q124.7 7.7 125.2 7.7L125.2 7.7Q125.9 7.7 126.4 8.1Q126.9 8.5 127.2 9.1Q127.5 9.8 127.5 10.7L127.5 10.7Q127.5 11.8 127.2 12.6Q126.8 13.4 126.2 13.8Q125.6 14.2 124.7 14.2L124.7 14.2Q124.2 14.2 123.7 14.0Q123.3 13.9 122.9 13.6L122.9 13.6ZM124.6 13.4L124.6 13.4Q125.1 13.4 125.5 13.1Q125.9 12.8 126.1 12.3Q126.3 11.7 126.3 10.9L126.3 10.9Q126.3 10.1 126.1 9.6Q126.0 9.1 125.6 8.9Q125.3 8.6 124.8 8.6L124.8 8.6Q124.3 8.6 123.9 8.8Q123.5 9.0 123.3 9.4Q123.1 9.8 123.1 10.4L123.1 10.4L123.1 12.9Q123.4 13.1 123.8 13.3Q124.2 13.4 124.6 13.4ZM131.7 14L128.7 14L128.7 13.4L129.3 13.3Q129.5 13.3 129.5 13.2Q129.6 13.1 129.6 12.8L129.6 12.8L129.6 6.3Q129.6 5.8 129.5 5.7Q129.4 5.6 129.1 5.5L129.1 5.5L128.6 5.5L128.6 4.9L130.6 4.8L130.7 4.9L130.7 8.9Q131.0 8.4 131.5 8.1Q132.1 7.7 132.7 7.7L132.7 7.7Q133.4 7.7 133.8 8.0Q134.2 8.2 134.4 8.7Q134.7 9.1 134.7 9.8L134.7 9.8L134.7 12.9Q134.7 13.1 134.7 13.2Q134.8 13.3 135.0 13.4L135.0 13.4L135.6 13.4L135.6 14L132.7 14L132.7 13.5L133.2 13.4Q133.4 13.3 133.5 13.2Q133.6 13.1 133.6 12.9L133.6 12.9L133.6 10.1Q133.6 9.6 133.4 9.2Q133.3 8.9 133.1 8.8Q132.8 8.6 132.4 8.6L132.4 8.6Q131.9 8.6 131.5 8.8Q131.1 9.0 130.9 9.4Q130.7 9.8 130.7 10.3L130.7 10.3L130.7 12.8Q130.7 13.1 130.8 13.2Q130.8 13.3 131.0 13.3L131.0 13.3L131.7 13.5L131.7 14ZM138.3 14.2L138.3 14.2Q137.5 14.2 137.1 13.7Q136.6 13.3 136.6 12.5L136.6 12.5Q136.6 11.9 136.9 11.5Q137.3 11.1 138.0 10.9Q138.8 10.7 140.1 10.6L140.1 10.6L140.1 9.8Q140.1 9.3 139.9 9.0Q139.8 8.6 139.5 8.5Q139.2 8.3 138.8 8.3L138.8 8.3Q138.4 8.3 138.1 8.4Q137.8 8.6 137.6 8.7L137.6 8.7Q137.8 8.9 137.8 9.0Q137.9 9.2 137.9 9.2Q138.0 9.3 138.0 9.4L138.0 9.4Q138.0 9.6 137.8 9.8Q137.6 9.9 137.3 9.9L137.3 9.9Q137.0 9.9 136.8 9.8Q136.6 9.6 136.6 9.3L136.6 9.3Q136.6 8.9 136.9 8.5Q137.3 8.2 137.8 8.0Q138.3 7.7 138.9 7.7L138.9 7.7Q139.7 7.7 140.2 8.0Q140.7 8.2 140.9 8.7Q141.2 9.2 141.2 9.9L141.2 9.9L141.2 12.8Q141.2 13.1 141.3 13.2Q141.4 13.3 141.7 13.3L141.7 13.3Q141.8 13.3 142.0 13.3Q142.1 13.3 142.3 13.2L142.3 13.2L142.4 13.7Q142.2 13.9 141.9 14.0Q141.6 14.2 141.3 14.2L141.3 14.2Q140.8 14.2 140.5 13.9Q140.2 13.6 140.1 13.1L140.1 13.1Q139.9 13.5 139.6 13.7Q139.4 13.9 139.0 14.0Q138.7 14.2 138.3 14.2ZM138.7 13.4L138.7 13.4Q139.1 13.4 139.4 13.2Q139.7 13.0 139.9 12.7Q140.1 12.4 140.1 12.1L140.1 12.1L140.1 11.2Q139.3 11.2 138.8 11.3Q138.3 11.5 138.0 11.7Q137.8 12.0 137.8 12.4L137.8 12.4Q137.8 12.8 138.0 13.1Q138.3 13.4 138.7 13.4ZM146.4 14L143.1 14L143.1 13.4L143.7 13.3Q143.9 13.3 143.9 13.2Q144.0 13.1 144.0 12.8L144.0 12.8L144.0 9.4Q144.0 8.9 143.9 8.8Q143.9 8.7 143.6 8.6L143.6 8.6L143.0 8.5L143.1 8.0L144.7 7.8L144.9 7.9L145.0 9.0L145.0 9.0Q145.4 8.4 145.8 8.1Q146.3 7.7 146.8 7.7L146.8 7.7Q147.4 7.7 147.7 8.1Q148.0 8.4 148.0 8.9L148.0 8.9Q148.0 9.2 148.0 9.4Q147.9 9.6 147.7 9.7Q147.5 9.8 147.2 9.8L147.2 9.8Q146.9 9.8 146.7 9.7Q146.5 9.6 146.5 9.3L146.5 9.3Q146.5 9.2 146.6 9.1Q146.6 9.0 146.6 8.9Q146.7 8.8 146.8 8.6L146.8 8.6Q146.5 8.5 146.2 8.6Q145.9 8.7 145.7 8.9Q145.4 9.2 145.3 9.5Q145.1 9.9 145.1 10.3L145.1 10.3L145.1 12.8Q145.1 13.1 145.2 13.2Q145.2 13.3 145.4 13.3L145.4 13.3L146.4 13.4L146.4 14ZM151.2 16.8L151.2 16.8Q150.5 16.8 150.0 16.7Q149.5 16.6 149.1 16.4Q148.8 16.2 148.6 15.9Q148.4 15.6 148.4 15.3L148.4 15.3Q148.4 15.0 148.5 14.7Q148.7 14.5 148.9 14.3Q149.1 14.1 149.5 13.9L149.5 13.9L149.5 13.9Q149.2 13.8 149.0 13.5Q148.8 13.2 148.8 12.9L148.8 12.9Q148.8 12.6 149.0 12.3Q149.1 12.0 149.6 11.6L149.6 11.6L149.6 11.5Q149.2 11.3 148.9 10.9Q148.7 10.5 148.7 9.9L148.7 9.9Q148.7 9.2 149.0 8.8Q149.3 8.3 149.9 8.0Q150.5 7.7 151.2 7.7L151.2 7.7Q151.5 7.7 151.8 7.8Q152.0 7.8 152.3 7.9Q152.6 8.0 152.8 8.1L152.8 8.1Q153.0 7.6 153.3 7.3Q153.6 7.0 154.0 7.0L154.0 7.0Q154.2 7.0 154.4 7.1Q154.6 7.2 154.7 7.3Q154.8 7.5 154.8 7.7L154.8 7.7Q154.8 7.9 154.6 8.1Q154.4 8.3 154.1 8.3L154.1 8.3Q154.0 8.3 153.9 8.2Q153.7 8.2 153.6 8L153.6 8L153.5 7.7Q153.4 7.9 153.3 8.1Q153.3 8.3 153.2 8.5L153.2 8.5Q153.4 8.8 153.5 9.1Q153.6 9.4 153.6 9.8L153.6 9.8Q153.6 10.5 153.3 10.9Q153.0 11.4 152.5 11.7Q152.0 11.9 151.2 11.9L151.2 11.9Q150.9 11.9 150.7 11.9Q150.4 11.8 150.2 11.8L150.2 11.8Q150.0 12.0 149.9 12.2Q149.8 12.3 149.8 12.5L149.8 12.5Q149.8 12.7 149.9 12.8Q150.0 12.9 150.2 13.0Q150.4 13.0 150.7 13.0L150.7 13.0L152.2 13.0Q153.3 13.0 153.8 13.4Q154.4 13.7 154.4 14.6L154.4 14.6Q154.4 15.0 154.2 15.3Q154.1 15.7 153.8 15.9Q153.6 16.2 153.2 16.4Q152.8 16.6 152.3 16.7Q151.8 16.8 151.2 16.8ZM151.3 16.0L151.3 16.0Q151.9 16.0 152.3 15.9Q152.8 15.7 153.0 15.5Q153.2 15.2 153.2 14.8L153.2 14.8Q153.2 14.5 152.9 14.3Q152.7 14.1 152.1 14.1L152.1 14.1L150.1 14.1Q149.8 14.3 149.7 14.5Q149.5 14.8 149.5 15.1L149.5 15.1Q149.5 15.6 149.9 15.8Q150.3 16.0 151.3 16.0ZM151.2 11.3L151.2 11.3Q151.8 11.3 152.2 10.9Q152.5 10.5 152.5 9.9L152.5 9.9Q152.5 9.1 152.1 8.7Q151.8 8.3 151.1 8.3L151.1 8.3Q150.5 8.3 150.2 8.7Q149.9 9.1 149.9 9.8L149.9 9.8Q149.9 10.5 150.2 10.9Q150.6 11.3 151.2 11.3ZM157.1 14.2L157.1 14.2Q156.4 14.2 155.9 13.7Q155.4 13.3 155.4 12.5L155.4 12.5Q155.4 11.9 155.8 11.5Q156.1 11.1 156.9 10.9Q157.6 10.7 158.9 10.6L158.9 10.6L158.9 9.8Q158.9 9.3 158.8 9.0Q158.6 8.6 158.3 8.5Q158.1 8.3 157.6 8.3L157.6 8.3Q157.3 8.3 157.0 8.4Q156.6 8.6 156.5 8.7L156.5 8.7Q156.6 8.9 156.7 9.0Q156.7 9.2 156.8 9.2Q156.8 9.3 156.8 9.4L156.8 9.4Q156.8 9.6 156.6 9.8Q156.4 9.9 156.2 9.9L156.2 9.9Q155.8 9.9 155.7 9.8Q155.5 9.6 155.5 9.3L155.5 9.3Q155.5 8.9 155.8 8.5Q156.1 8.2 156.6 8.0Q157.2 7.7 157.8 7.7L157.8 7.7Q158.5 7.7 159.0 8.0Q159.5 8.2 159.8 8.7Q160.0 9.2 160.0 9.9L160.0 9.9L160.0 12.8Q160.0 13.1 160.1 13.2Q160.3 13.3 160.5 13.3L160.5 13.3Q160.7 13.3 160.8 13.3Q160.9 13.3 161.1 13.2L161.1 13.2L161.2 13.7Q161.0 13.9 160.7 14.0Q160.4 14.2 160.1 14.2L160.1 14.2Q159.6 14.2 159.3 13.9Q159.0 13.6 159.0 13.1L159.0 13.1Q158.8 13.5 158.5 13.7Q158.2 13.9 157.9 14.0Q157.5 14.2 157.1 14.2ZM157.6 13.4L157.6 13.4Q158.0 13.4 158.2 13.2Q158.5 13.0 158.7 12.7Q158.9 12.4 158.9 12.1L158.9 12.1L158.9 11.2Q158.1 11.2 157.6 11.3Q157.1 11.5 156.9 11.7Q156.6 12.0 156.6 12.4L156.6 12.4Q156.6 12.8 156.9 13.1Q157.1 13.4 157.6 13.4ZM165.4 14L164.2 14L162.4 9.2Q162.3 9.0 162.2 8.9Q162.2 8.8 162.1 8.7Q162.0 8.6 161.8 8.6L161.8 8.6L161.4 8.5L161.5 7.9L164.4 7.9L164.4 8.5L163.8 8.5Q163.6 8.6 163.5 8.7Q163.5 8.8 163.6 9.1L163.6 9.1L165.0 13.0L165.1 13.0L166.4 9.2Q166.5 8.9 166.5 8.8Q166.4 8.6 166.2 8.6L166.2 8.6L165.6 8.5L165.8 7.9L168.2 7.9L168.2 8.5L167.8 8.6Q167.6 8.6 167.5 8.7Q167.4 8.8 167.2 9.2L167.2 9.2L165.4 14ZM169.6 14.2L169.2 14.2L169.0 12.1L169.6 12.1Q169.8 12.5 170.0 12.8Q170.3 13.1 170.6 13.3Q170.9 13.5 171.3 13.5L171.3 13.5Q171.8 13.5 172.1 13.2Q172.4 12.9 172.4 12.4L172.4 12.4Q172.4 12.2 172.3 12.0Q172.2 11.8 171.9 11.7Q171.6 11.5 171.0 11.4L171.0 11.4Q170.5 11.2 170.1 11.1Q169.8 10.9 169.5 10.7Q169.3 10.4 169.2 10.2Q169.1 9.9 169.1 9.5L169.1 9.5Q169.1 9.0 169.4 8.6Q169.6 8.2 170.1 8.0Q170.5 7.7 171.2 7.7L171.2 7.7Q171.5 7.7 171.9 7.9Q172.3 8.0 172.5 8.2L172.5 8.2L172.6 7.7L173.1 7.7L173.3 9.7L172.6 9.6Q172.5 9.1 172.1 8.7Q171.7 8.4 171.2 8.4L171.2 8.4Q170.7 8.4 170.4 8.6Q170.1 8.8 170.1 9.3L170.1 9.3Q170.1 9.5 170.2 9.7Q170.4 9.9 170.7 10.0Q171.0 10.2 171.5 10.3L171.5 10.3Q172.0 10.5 172.4 10.7Q172.8 10.8 173.0 11.0Q173.2 11.3 173.3 11.5Q173.4 11.8 173.4 12.2L173.4 12.2Q173.4 12.8 173.2 13.2Q172.9 13.7 172.4 13.9Q171.9 14.2 171.3 14.2L171.3 14.2Q170.8 14.2 170.4 14.1Q170.0 14.0 169.8 13.8L169.8 13.8L169.6 14.2ZM177.4 14L174.5 14L174.5 13.4L175.0 13.3Q175.2 13.3 175.3 13.2Q175.3 13.1 175.3 12.8L175.3 12.8L175.3 6.3Q175.3 5.8 175.3 5.7Q175.2 5.6 174.8 5.5L174.8 5.5L174.3 5.5L174.4 4.9L176.3 4.8L176.5 4.9L176.5 8.9Q176.7 8.4 177.3 8.1Q177.8 7.7 178.5 7.7L178.5 7.7Q179.1 7.7 179.5 8.0Q180.0 8.2 180.2 8.7Q180.4 9.1 180.4 9.8L180.4 9.8L180.4 12.9Q180.4 13.1 180.5 13.2Q180.5 13.3 180.8 13.4L180.8 13.4L181.4 13.4L181.4 14L178.4 14L178.4 13.5L178.9 13.4Q179.2 13.3 179.2 13.2Q179.3 13.1 179.3 12.9L179.3 12.9L179.3 10.1Q179.3 9.6 179.2 9.2Q179.1 8.9 178.8 8.8Q178.5 8.6 178.1 8.6L178.1 8.6Q177.6 8.6 177.2 8.8Q176.9 9.0 176.7 9.4Q176.5 9.8 176.5 10.3L176.5 10.3L176.5 12.8Q176.5 13.1 176.5 13.2Q176.6 13.3 176.8 13.3L176.8 13.3L177.4 13.5L177.4 14ZM184.9 14.2L184.9 14.2Q184.0 14.2 183.5 13.6Q183.0 13.1 183.0 12.1L183.0 12.1L183.0 9.4Q183.0 8.9 182.9 8.8Q182.8 8.7 182.6 8.6L182.6 8.6L182.1 8.5L182.1 8.0L184.0 7.8L184.1 7.9L184.1 11.8Q184.1 12.4 184.2 12.7Q184.3 13.0 184.6 13.2Q184.8 13.3 185.3 13.3L185.3 13.3Q185.8 13.3 186.1 13.1Q186.5 12.9 186.7 12.5Q186.9 12.2 186.9 11.6L186.9 11.6L186.9 9.4Q186.9 8.9 186.8 8.8Q186.7 8.7 186.5 8.6L186.5 8.6L185.9 8.5L186.0 8.0L187.8 7.8L188.0 7.9L188.0 12.8Q188.0 13.1 188.1 13.2Q188.1 13.3 188.4 13.3L188.4 13.3L189.0 13.4L189.0 14L187.1 14.1L186.9 13.1L186.9 13.1Q186.6 13.5 186.3 13.7Q186.0 13.9 185.6 14.1Q185.3 14.2 184.9 14.2ZM195.6 14.1L195.6 14.1Q195.3 14.1 195.1 14.0Q194.9 14.0 194.6 13.8Q194.4 13.6 194.1 13.2L194.1 13.2L192.1 10.8L192.1 10.7L194.0 9.0Q194.2 8.9 194.2 8.7Q194.2 8.6 194.0 8.5L194.0 8.5L193.5 8.5L193.6 7.9L196.2 7.9L196.2 8.4L195.9 8.5Q195.7 8.6 195.5 8.7Q195.3 8.8 195.1 9.0L195.1 9.0L193.3 10.5L195.3 12.8Q195.5 13.0 195.7 13.2Q195.9 13.3 196.1 13.3L196.1 13.3Q196.2 13.3 196.3 13.3Q196.4 13.3 196.6 13.2L196.6 13.2L196.7 13.6Q196.5 13.9 196.2 14.0Q195.9 14.1 195.6 14.1ZM192.8 14L189.8 14L189.8 13.4L190.5 13.3Q190.8 13.3 190.8 13.2Q190.9 13.1 190.9 12.7L190.9 12.7L190.9 6.3Q190.9 5.8 190.8 5.7Q190.7 5.6 190.4 5.5L190.4 5.5L189.9 5.5L189.9 4.9L191.9 4.8L192.0 4.9L192.0 12.8Q192.0 13.1 192.1 13.2Q192.1 13.3 192.3 13.3L192.3 13.3L192.8 13.4L192.8 14ZM200.4 14L197.1 14L197.1 13.4L197.8 13.3Q198.1 13.3 198.1 13.2Q198.2 13.0 198.2 12.7L198.2 12.7L198.2 6.3Q198.2 5.9 198.1 5.7Q198.0 5.6 197.7 5.6L197.7 5.6L197.1 5.5L197.2 4.9L199.2 4.8L199.3 4.9L199.3 12.8Q199.3 13.0 199.4 13.1Q199.4 13.3 199.7 13.3L199.7 13.3L200.4 13.4L200.4 14ZM203.0 14.2L203.0 14.2Q202.2 14.2 201.7 13.7Q201.3 13.3 201.3 12.5L201.3 12.5Q201.3 11.9 201.6 11.5Q201.9 11.1 202.7 10.9Q203.4 10.7 204.7 10.6L204.7 10.6L204.7 9.8Q204.7 9.3 204.6 9.0Q204.4 8.6 204.2 8.5Q203.9 8.3 203.4 8.3L203.4 8.3Q203.1 8.3 202.8 8.4Q202.5 8.6 202.3 8.7L202.3 8.7Q202.4 8.9 202.5 9.0Q202.6 9.2 202.6 9.2Q202.6 9.3 202.6 9.4L202.6 9.4Q202.6 9.6 202.4 9.8Q202.3 9.9 202.0 9.9L202.0 9.9Q201.7 9.9 201.5 9.8Q201.3 9.6 201.3 9.3L201.3 9.3Q201.3 8.9 201.6 8.5Q201.9 8.2 202.5 8.0Q203.0 7.7 203.6 7.7L203.6 7.7Q204.3 7.7 204.8 8.0Q205.3 8.2 205.6 8.7Q205.8 9.2 205.8 9.9L205.8 9.9L205.8 12.8Q205.8 13.1 206.0 13.2Q206.1 13.3 206.4 13.3L206.4 13.3Q206.5 13.3 206.6 13.3Q206.8 13.3 206.9 13.2L206.9 13.2L207.1 13.7Q206.8 13.9 206.5 14.0Q206.2 14.2 206.0 14.2L206.0 14.2Q205.4 14.2 205.2 13.9Q204.9 13.6 204.8 13.1L204.8 13.1Q204.6 13.5 204.3 13.7Q204.0 13.9 203.7 14.0Q203.4 14.2 203.0 14.2ZM203.4 13.4L203.4 13.4Q203.8 13.4 204.1 13.2Q204.4 13.0 204.5 12.7Q204.7 12.4 204.7 12.1L204.7 12.1L204.7 11.2Q204.0 11.2 203.4 11.3Q202.9 11.5 202.7 11.7Q202.4 12.0 202.4 12.4L202.4 12.4Q202.4 12.8 202.7 13.1Q203.0 13.4 203.4 13.4ZM209.1 14.2L209.1 14.2Q208.7 14.2 208.5 14.0Q208.2 13.7 208.2 13.3L208.2 13.3Q208.2 12.9 208.5 12.7Q208.7 12.4 209.1 12.4L209.1 12.4Q209.5 12.4 209.8 12.6Q210.0 12.9 210.0 13.3L210.0 13.3Q210.0 13.7 209.8 13.9Q209.5 14.2 209.1 14.2ZM214.5 14.2L214.5 14.2Q213.6 14.2 213.0 13.8Q212.4 13.4 212.0 12.7Q211.7 12.0 211.7 11.0L211.7 11.0Q211.7 10.0 212.0 9.3Q212.4 8.6 213.1 8.2Q213.7 7.7 214.6 7.7L214.6 7.7Q215.2 7.7 215.7 8.0Q216.2 8.2 216.5 8.5Q216.7 8.9 216.7 9.3L216.7 9.3Q216.7 9.5 216.6 9.7Q216.6 9.9 216.4 10.0Q216.2 10.1 216.0 10.1L216.0 10.1Q215.6 10.1 215.4 9.9Q215.2 9.8 215.2 9.5L215.2 9.5Q215.2 9.4 215.3 9.2Q215.4 9.0 215.6 8.7L215.6 8.7Q215.4 8.5 215.1 8.5Q214.9 8.4 214.5 8.4L214.5 8.4Q214.0 8.4 213.7 8.7Q213.3 9.0 213.1 9.5Q212.9 10.1 212.9 10.8L212.9 10.8Q212.9 11.9 213.4 12.6Q213.9 13.2 214.8 13.2L214.8 13.2Q215.3 13.2 215.7 13.1Q216.0 12.9 216.3 12.6L216.3 12.6L216.8 13.0Q216.4 13.6 215.8 13.9Q215.2 14.2 214.5 14.2ZM220.6 14.2L220.6 14.2Q219.7 14.2 219.0 13.8Q218.4 13.4 218.0 12.7Q217.7 12.0 217.7 11.1L217.7 11.1Q217.7 10.1 218.0 9.3Q218.4 8.6 219.1 8.2Q219.8 7.7 220.7 7.7L220.7 7.7Q221.6 7.7 222.3 8.1Q222.9 8.5 223.2 9.2Q223.6 9.9 223.6 10.8L223.6 10.8Q223.6 11.8 223.2 12.6Q222.8 13.3 222.2 13.8Q221.5 14.2 220.6 14.2ZM220.7 13.4L220.7 13.4Q221.3 13.4 221.6 13.2Q222.0 12.9 222.2 12.4Q222.4 11.8 222.4 11.1L222.4 11.1Q222.4 10.5 222.2 10.0Q222.1 9.5 221.9 9.1Q221.6 8.8 221.3 8.6Q221.0 8.4 220.5 8.4L220.5 8.4Q220.0 8.4 219.6 8.7Q219.3 9.0 219.1 9.5Q218.9 10.0 218.9 10.7L218.9 10.7Q218.9 11.6 219.1 12.2Q219.3 12.8 219.7 13.1Q220.2 13.4 220.7 13.4ZM227.6 14L224.8 14L224.8 13.4L225.4 13.3Q225.6 13.3 225.6 13.2Q225.7 13.1 225.7 12.8L225.7 12.8L225.7 9.4Q225.7 8.9 225.6 8.8Q225.5 8.6 225.3 8.6L225.3 8.6L224.7 8.5L224.8 8.0L226.4 7.8L226.6 7.9L226.7 9.0L226.7 9.0Q226.9 8.6 227.2 8.3Q227.6 8.1 228.0 7.9Q228.3 7.7 228.7 7.7L228.7 7.7Q229.4 7.7 229.9 8.1Q230.3 8.4 230.5 9.0L230.5 9.0Q230.8 8.4 231.4 8.1Q231.9 7.7 232.6 7.7L232.6 7.7Q233.2 7.7 233.6 8.0Q234.0 8.2 234.2 8.7Q234.5 9.1 234.5 9.8L234.5 9.8L234.5 12.9Q234.5 13.1 234.5 13.2Q234.6 13.3 234.8 13.4L234.8 13.4L235.4 13.4L235.4 14L232.5 14L232.5 13.5L233.0 13.4Q233.2 13.3 233.3 13.2Q233.3 13.1 233.3 12.9L233.3 12.9L233.3 10.1Q233.3 9.6 233.2 9.2Q233.1 8.9 232.9 8.8Q232.6 8.6 232.2 8.6L232.2 8.6Q231.7 8.6 231.4 8.8Q231.0 9.0 230.8 9.4Q230.6 9.8 230.6 10.3L230.6 10.3L230.6 12.8Q230.6 13.1 230.7 13.2Q230.7 13.3 230.9 13.3L230.9 13.3L231.5 13.5L231.5 14L228.7 14L228.7 13.5L229.1 13.4Q229.4 13.3 229.4 13.2Q229.5 13.1 229.5 12.9L229.5 12.9L229.5 10.1Q229.5 9.6 229.4 9.2Q229.3 8.9 229.0 8.7Q228.8 8.6 228.4 8.6L228.4 8.6Q227.9 8.6 227.6 8.8Q227.2 9.0 227.0 9.4Q226.8 9.8 226.8 10.3L226.8 10.3L226.8 12.8Q226.8 13.1 226.9 13.2Q226.9 13.3 227.1 13.3L227.1 13.3L227.6 13.5L227.6 14ZM236.8 15.3L236.0 15.3L239.9 4.4L240.6 4.4L236.8 15.3ZM244.9 14L241.5 14L241.5 13.4L242.1 13.3Q242.3 13.3 242.4 13.2Q242.4 13.1 242.4 12.8L242.4 12.8L242.4 9.4Q242.4 8.9 242.4 8.8Q242.3 8.7 242.0 8.6L242.0 8.6L241.4 8.5L241.5 8.0L243.1 7.8L243.3 7.9L243.4 9.0L243.5 9.0Q243.8 8.4 244.3 8.1Q244.7 7.7 245.2 7.7L245.2 7.7Q245.8 7.7 246.1 8.1Q246.5 8.4 246.5 8.9L246.5 8.9Q246.5 9.2 246.4 9.4Q246.3 9.6 246.1 9.7Q245.9 9.8 245.7 9.8L245.7 9.8Q245.3 9.8 245.2 9.7Q245.0 9.6 245.0 9.3L245.0 9.3Q245.0 9.2 245.0 9.1Q245.0 9.0 245.1 8.9Q245.1 8.8 245.2 8.6L245.2 8.6Q244.9 8.5 244.6 8.6Q244.4 8.7 244.1 8.9Q243.9 9.2 243.7 9.5Q243.6 9.9 243.6 10.3L243.6 10.3L243.6 12.8Q243.6 13.1 243.6 13.2Q243.7 13.3 243.9 13.3L243.9 13.3L244.9 13.4L244.9 14ZM250.0 14.2L250.0 14.2Q249.1 14.2 248.5 13.8Q247.8 13.4 247.5 12.7Q247.1 12.0 247.1 11.0L247.1 11.0Q247.1 10.0 247.5 9.3Q247.8 8.6 248.5 8.2Q249.2 7.7 250.0 7.7L250.0 7.7Q250.7 7.7 251.2 8.0Q251.7 8.3 252.0 8.8Q252.3 9.2 252.3 9.9L252.3 9.9Q252.3 10.1 252.2 10.4Q252.2 10.7 252.1 11.0L252.1 11.0L248.3 11.0Q248.4 11.7 248.6 12.2Q248.8 12.8 249.3 13.0Q249.7 13.3 250.3 13.3L250.3 13.3Q250.7 13.3 251.1 13.1Q251.6 12.9 251.9 12.6L251.9 12.6L252.3 13.0Q251.9 13.5 251.3 13.8Q250.7 14.2 250.0 14.2ZM248.3 10.4L248.3 10.4L251.1 10.4Q251.1 10.3 251.1 10.1Q251.1 10.0 251.1 9.8L251.1 9.8Q251.1 9.1 250.8 8.7Q250.5 8.4 249.9 8.4L249.9 8.4Q249.5 8.4 249.1 8.6Q248.8 8.8 248.6 9.3Q248.4 9.7 248.3 10.4ZM254.1 14.2L253.6 14.2L253.4 12.1L254.0 12.1Q254.2 12.5 254.4 12.8Q254.7 13.1 255.0 13.3Q255.3 13.5 255.7 13.5L255.7 13.5Q256.3 13.5 256.6 13.2Q256.9 12.9 256.9 12.4L256.9 12.4Q256.9 12.2 256.7 12.0Q256.6 11.8 256.3 11.7Q256.0 11.5 255.5 11.4L255.5 11.4Q254.9 11.2 254.6 11.1Q254.2 10.9 254.0 10.7Q253.7 10.4 253.6 10.2Q253.5 9.9 253.5 9.5L253.5 9.5Q253.5 9.0 253.8 8.6Q254.0 8.2 254.5 8.0Q255.0 7.7 255.6 7.7L255.6 7.7Q256.0 7.7 256.3 7.9Q256.7 8.0 256.9 8.2L256.9 8.2L257.0 7.7L257.5 7.7L257.7 9.7L257.0 9.6Q256.9 9.1 256.5 8.7Q256.1 8.4 255.6 8.4L255.6 8.4Q255.1 8.4 254.8 8.6Q254.5 8.8 254.5 9.3L254.5 9.3Q254.5 9.5 254.6 9.7Q254.8 9.9 255.1 10.0Q255.4 10.2 255.9 10.3L255.9 10.3Q256.4 10.5 256.8 10.7Q257.2 10.8 257.4 11.0Q257.6 11.3 257.7 11.5Q257.9 11.8 257.9 12.2L257.9 12.2Q257.9 12.8 257.6 13.2Q257.3 13.7 256.8 13.9Q256.3 14.2 255.7 14.2L255.7 14.2Q255.2 14.2 254.8 14.1Q254.4 14.0 254.2 13.8L254.2 13.8L254.1 14.2ZM261.4 14.2L261.4 14.2Q260.4 14.2 260.0 13.6Q259.5 13.1 259.5 12.1L259.5 12.1L259.5 9.4Q259.5 8.9 259.4 8.8Q259.3 8.7 259.1 8.6L259.1 8.6L258.5 8.5L258.6 8.0L260.4 7.8L260.6 7.9L260.6 11.8Q260.6 12.4 260.7 12.7Q260.8 13.0 261.1 13.2Q261.3 13.3 261.7 13.3L261.7 13.3Q262.2 13.3 262.6 13.1Q263.0 12.9 263.2 12.5Q263.4 12.2 263.4 11.6L263.4 11.6L263.4 9.4Q263.4 8.9 263.3 8.8Q263.2 8.7 263.0 8.6L263.0 8.6L262.4 8.5L262.5 8.0L264.3 7.8L264.5 7.9L264.5 12.8Q264.5 13.1 264.6 13.2Q264.6 13.3 264.9 13.3L264.9 13.3L265.5 13.4L265.5 14L263.6 14.1L263.4 13.1L263.4 13.1Q263.1 13.5 262.8 13.7Q262.5 13.9 262.1 14.1Q261.8 14.2 261.4 14.2ZM269.3 14L266.5 14L266.5 13.4L267.1 13.3Q267.3 13.3 267.3 13.2Q267.4 13.1 267.4 12.8L267.4 12.8L267.4 9.4Q267.4 8.9 267.3 8.8Q267.2 8.6 267.0 8.6L267.0 8.6L266.4 8.5L266.4 8.0L268.1 7.8L268.3 7.9L268.4 9.0L268.4 9.0Q268.6 8.6 268.9 8.3Q269.3 8.1 269.6 7.9Q270.0 7.7 270.4 7.7L270.4 7.7Q271.1 7.7 271.6 8.1Q272.0 8.4 272.2 9.0L272.2 9.0Q272.5 8.4 273.1 8.1Q273.6 7.7 274.2 7.7L274.2 7.7Q274.9 7.7 275.3 8.0Q275.7 8.2 275.9 8.7Q276.1 9.1 276.1 9.8L276.1 9.8L276.1 12.9Q276.1 13.1 276.2 13.2Q276.3 13.3 276.5 13.4L276.5 13.4L277.1 13.4L277.1 14L274.2 14L274.2 13.5L274.7 13.4Q274.9 13.3 275.0 13.2Q275.0 13.1 275.0 12.9L275.0 12.9L275.0 10.1Q275.0 9.6 274.9 9.2Q274.8 8.9 274.6 8.8Q274.3 8.6 273.9 8.6L273.9 8.6Q273.4 8.6 273.1 8.8Q272.7 9.0 272.5 9.4Q272.3 9.8 272.3 10.3L272.3 10.3L272.3 12.8Q272.3 13.1 272.4 13.2Q272.4 13.3 272.6 13.3L272.6 13.3L273.2 13.5L273.2 14L270.4 14L270.4 13.5L270.8 13.4Q271.1 13.3 271.1 13.2Q271.2 13.1 271.2 12.9L271.2 12.9L271.2 10.1Q271.2 9.6 271.1 9.2Q271.0 8.9 270.7 8.7Q270.5 8.6 270.1 8.6L270.1 8.6Q269.6 8.6 269.2 8.8Q268.9 9.0 268.7 9.4Q268.5 9.8 268.5 10.3L268.5 10.3L268.5 12.8Q268.5 13.1 268.5 13.2Q268.6 13.3 268.8 13.3L268.8 13.3L269.3 13.5L269.3 14ZM280.9 14.2L280.9 14.2Q280.0 14.2 279.4 13.8Q278.7 13.4 278.4 12.7Q278.0 12.0 278.0 11.0L278.0 11.0Q278.0 10.0 278.4 9.3Q278.7 8.6 279.4 8.2Q280.1 7.7 280.9 7.7L280.9 7.7Q281.6 7.7 282.1 8.0Q282.6 8.3 282.9 8.8Q283.1 9.2 283.1 9.9L283.1 9.9Q283.1 10.1 283.1 10.4Q283.1 10.7 283.0 11.0L283.0 11.0L279.2 11.0Q279.2 11.7 279.5 12.2Q279.7 12.8 280.1 13.0Q280.6 13.3 281.1 13.3L281.1 13.3Q281.6 13.3 282.0 13.1Q282.5 12.9 282.8 12.6L282.8 12.6L283.2 13.0Q282.8 13.5 282.2 13.8Q281.5 14.2 280.9 14.2ZM279.2 10.4L279.2 10.4L282.0 10.4Q282.0 10.3 282.0 10.1Q282.0 10.0 282.0 9.8L282.0 9.8Q282.0 9.1 281.7 8.7Q281.4 8.4 280.8 8.4L280.8 8.4Q280.3 8.4 280.0 8.6Q279.7 8.8 279.5 9.3Q279.3 9.7 279.2 10.4ZM285.7 14.2L285.7 14.2Q285.3 14.2 285.0 14.0Q284.8 13.7 284.8 13.3L284.8 13.3Q284.8 12.9 285.0 12.7Q285.3 12.4 285.7 12.4L285.7 12.4Q286.1 12.4 286.3 12.6Q286.6 12.9 286.6 13.3L286.6 13.3Q286.6 13.7 286.3 13.9Q286.1 14.2 285.7 14.2Z "/></g></svg>
